<svg id="svg" version="1.1" xmlns="http://www.w3.org/2000/svg" xmlns:xlink="http://www.w3.org/1999/xlink" width="400" height="397.3559962228518" viewBox="0, 0, 400,397.3559962228518"><g id="svgg"><path id="path0" d="M133.650 57.465 C 132.541 58.740,131.451 59.972,131.228 60.204 C 127.404 64.174,123.644 72.225,121.221 81.630 C 120.633 83.911,120.791 94.425,121.456 97.292 C 124.211 109.169,131.696 120.516,141.744 128.045 C 144.256 129.928,144.114 130.486,140.793 131.775 C 134.007 134.408,127.711 139.412,125.325 144.066 C 124.121 146.416,125.000 149.335,127.266 150.507 C 130.409 152.132,143.243 153.250,151.862 152.648 C 157.483 152.256,157.885 152.363,157.885 154.266 C 157.885 154.925,158.219 156.987,158.628 158.847 C 160.418 166.999,162.337 172.105,167.065 181.300 C 171.929 190.760,172.276 194.939,168.991 204.497 C 165.613 214.327,168.878 223.435,176.852 226.430 C 177.853 226.806,178.916 227.534,179.279 228.092 C 179.893 229.034,181.024 230.178,182.768 231.623 C 191.962 239.238,214.377 237.153,219.672 228.190 C 220.098 227.468,220.884 226.846,221.704 226.581 C 228.798 224.289,233.512 214.820,231.163 207.581 C 230.956 206.943,230.255 204.891,229.606 203.022 C 228.243 199.095,227.772 193.597,228.476 189.829 C 228.898 187.568,230.731 183.192,231.255 183.192 C 231.411 183.192,231.539 182.852,231.539 182.436 C 231.539 182.021,231.709 181.681,231.917 181.681 C 232.125 181.681,232.295 181.532,232.295 181.350 C 232.295 181.168,233.229 179.060,234.372 176.665 C 235.515 174.271,236.449 172.157,236.449 171.968 C 236.449 171.779,236.797 170.905,237.222 170.027 C 237.646 169.148,238.559 166.269,239.249 163.629 C 241.097 156.566,241.360 155.362,241.360 153.954 C 241.360 152.299,241.439 152.281,247.214 152.643 C 258.047 153.321,270.259 151.963,272.664 149.812 C 276.119 146.723,274.137 142.173,266.805 136.355 C 264.714 134.696,258.593 131.462,257.490 131.433 C 255.345 131.376,255.348 129.659,257.496 128.045 C 272.921 116.459,281.413 96.468,277.712 80.453 C 276.271 74.215,271.549 63.799,269.323 61.945 C 269.198 61.841,268.706 61.246,268.230 60.623 C 263.257 54.114,260.701 53.261,262.653 58.764 C 269.140 77.048,259.260 98.039,239.093 108.818 C 238.159 109.317,237.337 109.854,237.268 110.009 C 237.199 110.165,236.973 110.293,236.766 110.293 C 236.560 110.293,235.154 110.888,233.642 111.615 C 230.907 112.930,229.372 113.237,228.687 112.605 C 227.824 111.808,223.137 110.342,218.508 109.421 C 215.491 108.821,183.966 108.828,180.737 109.430 C 176.577 110.204,171.414 111.815,170.557 112.606 C 170.091 113.036,168.628 113.030,167.795 112.593 C 167.434 112.405,165.694 111.552,163.928 110.698 C 152.607 105.225,142.161 95.538,138.457 87.080 C 138.180 86.447,137.614 85.165,137.198 84.230 C 133.821 76.638,133.678 66.632,136.825 58.093 C 137.601 55.990,137.666 55.528,137.214 55.355 C 136.092 54.924,135.615 55.206,133.650 57.465 M169.675 161.420 C 170.031 161.808,173.813 165.674,178.079 170.013 C 182.345 174.351,185.836 178.071,185.836 178.280 C 185.836 178.972,184.872 178.674,182.603 177.282 C 181.369 176.525,179.679 175.498,178.848 175.001 C 176.427 173.551,175.928 173.241,174.254 172.144 C 173.382 171.572,172.568 171.105,172.445 171.105 C 171.381 171.105,169.258 168.997,168.905 167.589 C 167.030 160.118,167.203 158.733,169.675 161.420 M231.405 161.568 C 230.909 164.850,230.466 167.202,230.163 168.156 C 229.853 169.132,227.945 170.491,221.285 174.483 C 220.173 175.150,218.159 176.362,216.810 177.177 C 211.893 180.147,212.368 179.108,219.143 172.068 C 230.861 159.891,231.776 159.108,231.405 161.568 M95.748 255.052 C 95.635 255.519,95.589 268.225,95.647 283.286 L 95.751 310.670 99.617 310.778 L 103.483 310.886 103.583 299.258 L 103.683 287.630 104.674 287.515 C 105.470 287.423,105.893 287.719,106.832 289.026 C 107.474 289.920,108.175 290.857,108.390 291.108 C 108.606 291.359,108.782 291.727,108.782 291.926 C 108.782 292.125,108.919 292.345,109.086 292.414 C 109.253 292.483,110.558 294.240,111.986 296.317 C 115.716 301.745,116.101 302.290,116.558 302.788 C 116.784 303.034,117.545 304.144,118.250 305.253 C 118.954 306.363,119.730 307.479,119.974 307.733 C 120.218 307.987,120.787 308.795,121.240 309.527 L 122.064 310.859 126.754 310.859 C 131.923 310.859,131.927 310.857,130.309 308.971 C 129.685 308.244,128.717 306.926,128.157 306.043 C 127.597 305.161,127.003 304.438,126.837 304.438 C 126.671 304.438,126.534 304.183,126.534 303.872 C 126.534 303.560,126.405 303.305,126.246 303.305 C 126.088 303.305,125.790 302.979,125.585 302.582 C 125.235 301.901,122.306 297.848,116.829 290.463 C 113.930 286.555,113.932 286.601,116.619 285.530 C 120.779 283.871,123.338 281.596,125.025 278.055 C 125.485 277.089,126.024 275.986,126.222 275.604 C 126.788 274.514,126.717 267.424,126.124 265.709 C 123.154 257.132,117.170 254.224,102.462 254.209 C 96.023 254.202,95.952 254.211,95.748 255.052 M182.688 254.832 C 182.550 254.970,182.436 256.666,182.436 258.600 L 182.436 262.116 188.763 262.219 L 195.090 262.323 195.279 286.497 L 195.467 310.670 199.339 310.778 L 203.211 310.886 203.211 286.934 C 203.211 267.549,203.306 262.903,203.709 262.568 C 204.012 262.317,206.572 262.113,210.225 262.050 L 216.242 261.945 216.352 258.578 C 216.431 256.138,216.327 255.125,215.974 254.901 C 215.395 254.533,183.054 254.466,182.688 254.832 M280.359 254.830 C 279.987 254.980,279.887 260.958,279.887 282.940 L 279.887 310.859 287.693 310.859 C 304.673 310.859,310.824 307.646,312.759 297.765 C 313.010 296.484,313.118 294.869,313.000 294.177 C 312.275 289.951,312.288 289.998,311.193 287.634 C 310.331 285.772,307.806 283.531,305.099 282.226 C 302.083 280.772,302.070 280.722,304.216 278.744 C 311.549 271.984,307.271 258.406,296.930 255.621 C 294.038 254.842,281.779 254.257,280.359 254.830 M110.746 261.793 C 122.240 264.174,122.282 277.699,110.803 280.101 C 107.235 280.847,104.021 280.822,103.723 280.045 C 103.265 278.850,103.468 262.311,103.947 261.832 C 104.514 261.265,108.099 261.245,110.746 261.793 M295.460 262.757 C 298.896 264.085,300.283 266.245,300.283 270.267 C 300.283 276.182,297.447 278.890,291.218 278.925 L 288.008 278.942 287.905 271.020 C 287.849 266.663,287.886 262.881,287.988 262.616 C 288.266 261.890,293.469 261.988,295.460 262.757 M298.798 286.155 C 303.048 287.404,304.981 289.990,304.984 294.429 C 304.986 300.676,300.922 303.466,292.162 303.229 L 288.008 303.116 287.906 294.815 C 287.849 290.250,287.887 286.298,287.988 286.033 C 288.270 285.299,296.190 285.389,298.798 286.155 " stroke="none" fill="#8b1c1b" fill-rule="evenodd"></path><path id="path1" d="M187.158 26.050 C 164.826 27.349,139.107 34.655,117.952 45.710 C 33.040 90.081,0.359 193.690,44.862 277.436 C 48.863 284.965,56.726 297.370,59.701 300.846 C 60.236 301.471,61.410 303.045,62.309 304.344 C 63.208 305.642,64.068 306.704,64.220 306.704 C 64.373 306.704,65.234 307.682,66.135 308.876 C 67.036 310.071,68.968 312.285,70.429 313.796 C 71.889 315.307,73.170 316.760,73.275 317.024 C 73.380 317.289,75.165 319.095,77.243 321.039 C 79.320 322.982,82.210 325.698,83.664 327.075 C 85.118 328.451,86.733 329.850,87.252 330.184 C 87.771 330.518,89.468 331.916,91.022 333.290 C 92.576 334.664,94.028 335.788,94.249 335.788 C 94.470 335.788,95.663 336.646,96.900 337.694 C 98.138 338.742,100.935 340.726,103.116 342.104 C 105.297 343.481,107.847 345.151,108.782 345.814 C 109.717 346.478,111.325 347.389,112.356 347.840 C 113.387 348.291,114.492 348.883,114.812 349.157 C 115.131 349.430,116.327 350.141,117.469 350.736 C 118.612 351.331,119.952 352.121,120.448 352.491 C 120.943 352.861,121.604 353.163,121.917 353.163 C 122.230 353.163,124.884 354.330,127.815 355.755 C 130.746 357.180,133.824 358.562,134.655 358.824 C 135.486 359.087,137.441 359.773,138.999 360.349 C 145.299 362.678,150.730 364.516,151.912 364.719 C 152.600 364.837,155.118 365.424,157.507 366.024 C 173.820 370.120,177.742 370.538,199.806 370.538 C 221.936 370.538,224.645 370.264,241.171 366.355 C 247.117 364.949,259.916 361.006,260.834 360.298 C 261.053 360.129,262.158 359.746,263.289 359.446 C 265.376 358.894,267.412 358.030,274.089 354.864 C 279.697 352.205,283.786 350.107,284.419 349.563 C 284.731 349.296,285.947 348.594,287.122 348.004 C 289.685 346.716,295.648 343.059,295.931 342.601 C 296.042 342.422,296.858 341.924,297.744 341.495 C 298.630 341.066,300.456 339.783,301.802 338.643 C 303.148 337.504,304.674 336.353,305.194 336.085 C 310.897 333.151,329.943 314.314,338.003 303.635 C 339.042 302.259,340.313 300.679,340.828 300.124 C 341.342 299.569,342.037 298.536,342.373 297.828 C 342.709 297.121,343.374 296.067,343.853 295.486 C 345.622 293.335,347.154 290.823,346.923 290.450 C 346.793 290.239,346.911 290.113,347.186 290.170 C 347.470 290.229,347.662 289.977,347.630 289.588 C 347.599 289.210,347.665 288.993,347.777 289.105 C 348.275 289.604,359.962 267.877,359.962 266.451 C 359.962 266.245,360.572 264.638,361.317 262.878 C 390.078 194.978,370.129 114.687,312.533 66.527 C 309.068 63.630,307.584 62.481,301.183 57.743 C 299.349 56.386,292.088 51.701,288.952 49.850 C 281.405 45.398,268.869 39.339,263.267 37.435 C 262.540 37.187,258.801 35.905,254.958 34.584 C 234.663 27.610,211.172 24.653,187.158 26.050 M138.062 55.022 C 138.581 55.814,138.631 56.177,138.294 56.716 C 138.059 57.094,137.866 57.735,137.866 58.141 C 137.866 58.547,137.716 58.972,137.532 59.085 C 137.348 59.199,137.108 59.761,136.999 60.335 C 136.889 60.909,136.530 62.568,136.200 64.023 C 135.503 67.093,135.390 74.844,136.007 77.199 C 136.231 78.054,136.591 79.433,136.806 80.264 C 137.518 83.019,140.243 88.743,141.872 90.910 C 142.369 91.571,142.776 92.293,142.776 92.515 C 142.776 92.737,142.910 92.918,143.072 92.918 C 143.235 92.918,143.649 93.392,143.991 93.972 C 145.007 95.692,149.931 100.558,152.975 102.851 C 154.533 104.024,156.013 105.159,156.264 105.372 C 156.514 105.586,156.865 105.760,157.042 105.760 C 157.220 105.760,157.694 106.059,158.097 106.425 C 158.764 107.032,166.134 110.785,168.509 111.729 C 169.055 111.945,169.650 111.987,169.831 111.821 C 170.638 111.080,176.306 109.265,179.299 108.788 C 180.378 108.616,181.437 108.366,181.653 108.233 C 182.325 107.817,217.522 107.978,218.311 108.400 C 218.703 108.610,219.491 108.782,220.062 108.782 C 221.364 108.782,223.408 109.414,228.413 111.363 L 230.386 112.131 232.946 110.872 C 234.353 110.180,236.058 109.384,236.733 109.105 C 237.408 108.826,237.960 108.501,237.960 108.382 C 237.960 108.264,238.555 107.934,239.282 107.649 C 240.009 107.363,240.604 107.003,240.604 106.848 C 240.604 106.693,240.943 106.459,241.358 106.327 C 241.772 106.196,242.324 105.880,242.585 105.625 C 242.846 105.370,244.249 104.320,245.703 103.291 C 251.481 99.204,256.129 93.646,260.256 85.888 C 264.294 78.298,264.807 67.598,261.565 58.609 C 259.361 52.500,263.104 52.437,267.802 58.505 C 268.320 59.174,269.060 60.094,269.446 60.550 C 270.492 61.784,272.710 65.305,272.710 65.730 C 272.710 65.933,272.854 66.100,273.031 66.100 C 273.430 66.100,276.600 72.925,277.154 74.976 C 277.378 75.807,277.841 77.422,278.183 78.565 C 279.526 83.059,279.797 92.907,278.698 97.262 C 277.598 101.614,277.212 102.945,276.502 104.816 C 275.743 106.819,271.826 114.448,271.556 114.448 C 271.388 114.448,271.140 114.796,271.005 115.221 C 270.454 116.957,263.707 124.203,258.937 128.181 C 257.105 129.709,256.918 130.419,258.292 130.621 C 258.743 130.688,259.112 130.900,259.112 131.093 C 259.112 131.287,259.396 131.445,259.742 131.445 C 260.609 131.445,266.429 134.631,267.868 135.892 C 270.346 138.065,272.710 140.476,272.710 140.832 C 272.710 141.036,272.844 141.259,273.007 141.328 C 274.140 141.809,275.164 144.223,275.165 146.416 C 275.166 152.036,268.779 153.928,250.630 153.684 L 242.337 153.572 241.899 156.578 C 241.209 161.312,239.790 166.561,238.278 169.972 C 238.048 170.491,237.712 171.298,237.532 171.766 C 235.971 175.820,233.927 180.205,232.294 183.003 C 228.802 188.984,228.067 196.477,230.403 202.266 C 233.848 210.800,232.207 220.909,226.712 225.013 C 225.939 225.590,225.250 226.190,225.181 226.346 C 225.112 226.501,224.739 226.629,224.353 226.629 C 223.968 226.629,223.547 226.799,223.418 227.007 C 223.290 227.214,222.881 227.384,222.510 227.384 C 221.795 227.384,220.208 228.576,220.208 229.113 C 220.208 229.856,216.305 233.064,214.054 234.173 C 209.980 236.178,206.724 236.837,199.671 237.082 C 196.195 237.202,194.294 237.127,194.024 236.857 C 193.800 236.633,193.012 236.449,192.274 236.449 C 189.726 236.449,183.740 233.882,181.492 231.824 C 180.869 231.254,180.271 230.786,180.165 230.786 C 180.058 230.785,179.571 230.137,179.082 229.346 C 178.409 228.257,177.727 227.743,176.274 227.227 C 168.376 224.421,164.731 214.318,168.039 204.399 C 170.700 196.423,170.358 186.287,167.349 183.947 C 167.064 183.726,164.038 177.582,162.605 174.315 C 160.348 169.170,158.766 164.200,157.677 158.829 C 157.340 157.167,156.949 155.310,156.808 154.703 L 156.551 153.599 148.058 153.678 C 130.483 153.844,124.476 152.132,123.965 146.815 C 123.667 143.713,125.944 140.396,131.634 135.643 C 133.338 134.219,140.237 130.689,141.316 130.689 C 142.519 130.689,142.097 129.684,140.260 128.172 C 138.378 126.624,131.633 120.001,130.688 118.773 C 120.367 105.369,117.255 90.018,121.886 75.354 C 122.652 72.928,125.745 66.328,126.192 66.163 C 126.380 66.094,126.534 65.814,126.534 65.542 C 126.534 65.102,129.968 60.047,131.172 58.715 C 135.067 54.404,135.466 54.046,136.406 54.030 C 137.079 54.019,137.615 54.340,138.062 55.022 M169.108 162.691 C 169.017 162.852,169.164 164.004,169.433 165.250 C 169.703 166.497,169.934 167.705,169.947 167.935 C 169.974 168.390,173.872 171.105,174.498 171.105 C 174.709 171.105,174.883 171.232,174.885 171.388 C 174.887 171.544,175.269 171.858,175.735 172.086 C 176.201 172.314,177.660 173.122,178.979 173.880 C 181.905 175.564,181.984 175.572,180.580 174.032 C 176.988 170.095,169.248 162.442,169.108 162.691 M223.498 168.954 C 220.219 172.313,217.731 175.127,217.971 175.207 C 218.210 175.286,218.514 175.202,218.646 175.019 C 218.778 174.836,219.523 174.351,220.302 173.943 C 221.081 173.534,221.719 173.109,221.719 173.000 C 221.719 172.890,222.271 172.556,222.946 172.257 C 223.621 171.958,224.344 171.566,224.551 171.387 C 224.759 171.207,225.863 170.508,227.004 169.833 C 228.698 168.831,229.127 168.368,229.344 167.306 C 229.490 166.591,229.765 165.283,229.957 164.400 C 230.489 161.946,230.016 162.280,223.498 168.954 M113.881 254.092 C 120.428 255.391,124.601 258.872,126.917 264.967 C 127.500 266.499,127.916 270.661,127.617 271.950 C 127.447 272.680,127.304 273.840,127.299 274.528 C 127.269 278.669,121.527 285.302,116.986 286.442 C 115.928 286.708,115.658 287.504,116.354 288.307 C 116.572 288.558,117.435 289.698,118.272 290.840 C 120.540 293.936,121.266 294.919,123.141 297.431 C 124.079 298.688,125.269 300.353,125.785 301.131 C 126.301 301.908,126.851 302.546,127.007 302.547 C 127.162 302.548,127.290 302.727,127.290 302.943 C 127.290 303.160,127.465 303.542,127.680 303.793 C 127.895 304.044,128.868 305.354,129.843 306.704 C 130.819 308.055,131.731 309.245,131.871 309.348 C 132.144 309.552,132.317 310.381,132.245 311.143 C 132.211 311.496,130.874 311.615,126.946 311.615 L 121.691 311.615 120.687 310.387 C 120.135 309.712,119.440 308.860,119.143 308.494 C 118.846 308.128,118.602 307.693,118.602 307.527 C 118.602 307.361,118.302 306.895,117.935 306.492 C 117.569 306.090,116.691 304.852,115.985 303.743 C 115.280 302.633,114.509 301.528,114.273 301.287 C 114.037 301.047,112.160 298.385,110.102 295.373 C 108.044 292.361,105.970 289.473,105.493 288.956 L 104.627 288.015 104.627 299.362 C 104.627 312.757,105.102 311.615,99.528 311.615 C 96.771 311.615,95.180 311.460,94.882 311.161 C 94.398 310.678,94.186 255.274,94.663 254.031 C 94.934 253.326,110.268 253.375,113.881 254.092 M217.321 255.619 C 218.440 262.385,217.992 262.888,210.846 262.895 C 207.581 262.898,204.699 263.035,204.441 263.199 C 204.077 263.430,203.950 268.866,203.874 287.462 L 203.777 311.426 199.245 311.426 L 194.712 311.426 194.523 287.252 L 194.334 263.078 188.008 262.975 L 181.681 262.871 181.681 258.537 L 181.681 254.202 199.384 254.202 L 217.087 254.202 217.321 255.619 M297.450 254.732 C 302.429 255.971,306.434 259.836,308.005 264.915 C 308.784 267.434,308.702 274.625,307.891 274.896 C 307.654 274.975,307.460 275.372,307.460 275.779 C 307.460 276.579,307.168 277.015,305.289 279.026 C 304.005 280.400,303.982 281.020,305.216 281.020 C 305.619 281.020,305.949 281.190,305.949 281.398 C 305.949 281.605,306.201 281.775,306.509 281.775 C 308.207 281.775,313.115 287.996,313.122 290.157 C 313.124 290.716,313.296 291.279,313.503 291.407 C 313.712 291.536,313.881 293.229,313.881 295.184 C 313.881 297.139,313.712 298.832,313.503 298.961 C 313.296 299.090,313.126 299.601,313.126 300.098 C 313.126 302.561,309.744 306.786,306.204 308.746 C 301.708 311.235,299.073 311.651,288.574 311.532 L 279.320 311.426 279.223 282.800 L 279.127 254.175 287.722 254.312 C 292.449 254.388,296.827 254.577,297.450 254.732 M104.627 271.008 L 104.627 279.617 108.066 279.358 C 115.418 278.803,119.021 275.139,118.023 269.232 C 117.306 264.992,114.433 263.080,108.121 262.641 L 104.627 262.398 104.627 271.008 M288.952 270.633 L 288.952 278.376 290.357 278.376 C 296.073 278.376,299.528 275.282,299.528 270.163 C 299.528 265.681,295.969 262.890,290.255 262.890 L 288.952 262.890 288.952 270.633 M288.952 294.405 L 288.952 302.550 290.780 302.550 C 293.324 302.550,298.887 301.786,299.320 301.377 C 299.517 301.191,299.924 301.039,300.224 301.039 C 301.584 301.039,304.412 296.722,304.430 294.618 C 304.476 289.183,300.546 286.566,292.001 286.340 L 288.952 286.260 288.952 294.405 " stroke="none" fill="#040404" fill-rule="evenodd"></path><path id="path2" d="M135.316 54.641 C 135.057 54.746,134.844 55.008,134.844 55.224 C 134.844 55.491,134.996 55.494,135.316 55.233 C 135.576 55.022,136.128 54.766,136.544 54.664 L 137.299 54.479 136.544 54.465 C 136.128 54.457,135.576 54.536,135.316 54.641 M265.140 56.374 C 266.705 58.042,267.044 58.341,267.044 58.058 C 267.044 57.997,266.237 57.190,265.250 56.264 L 263.456 54.580 265.140 56.374 M133.121 57.129 L 132.011 58.357 133.239 57.248 C 134.383 56.213,134.640 55.902,134.348 55.902 C 134.283 55.902,133.731 56.454,133.121 57.129 M136.544 59.679 C 136.402 60.126,136.371 60.576,136.475 60.680 C 136.579 60.784,136.780 60.503,136.922 60.057 C 137.063 59.610,137.094 59.159,136.991 59.055 C 136.887 58.952,136.686 59.232,136.544 59.679 M128.545 62.812 C 126.973 65.192,126.242 66.442,126.624 66.100 C 127.057 65.713,130.318 60.692,130.208 60.582 C 130.145 60.520,129.397 61.523,128.545 62.812 M268.943 60.667 C 268.949 60.851,269.416 61.517,269.982 62.149 C 271.121 63.420,271.020 63.096,269.756 61.422 C 269.303 60.823,268.938 60.483,268.943 60.667 M273.277 67.611 C 273.599 68.234,273.948 68.744,274.052 68.744 C 274.155 68.744,273.977 68.234,273.654 67.611 C 273.332 66.988,272.983 66.478,272.880 66.478 C 272.776 66.478,272.954 66.988,273.277 67.611 M134.982 71.199 C 134.983 73.277,135.047 74.078,135.123 72.981 C 135.200 71.883,135.199 70.183,135.121 69.204 C 135.044 68.224,134.981 69.122,134.982 71.199 M264.157 70.822 C 264.156 72.691,264.219 73.504,264.299 72.627 C 264.378 71.750,264.379 70.221,264.301 69.228 C 264.223 68.235,264.158 68.952,264.157 70.822 M121.085 79.536 C 120.946 80.089,120.905 80.615,120.994 80.704 C 121.083 80.793,121.269 80.413,121.408 79.860 C 121.547 79.306,121.588 78.780,121.499 78.691 C 121.410 78.602,121.224 78.982,121.085 79.536 M120.302 83.853 C 120.156 84.918,120.121 85.875,120.225 85.978 C 120.329 86.082,120.533 85.296,120.680 84.230 C 120.826 83.165,120.861 82.208,120.757 82.105 C 120.654 82.001,120.449 82.787,120.302 83.853 M278.565 88.901 C 278.565 92.381,278.675 94.836,278.810 94.357 C 279.124 93.244,279.118 85.153,278.803 83.685 C 278.672 83.074,278.565 85.421,278.565 88.901 M259.026 88.857 C 258.199 90.131,257.458 91.649,257.873 91.218 C 258.402 90.668,259.960 88.008,259.753 88.008 C 259.656 88.008,259.329 88.390,259.026 88.857 M120.158 92.572 C 120.183 93.281,120.341 94.372,120.510 94.995 C 120.713 95.740,120.746 95.352,120.607 93.862 C 120.375 91.364,120.088 90.539,120.158 92.572 M144.353 95.512 C 144.836 96.108,145.291 96.544,145.363 96.482 C 145.567 96.306,144.137 94.454,143.786 94.441 C 143.615 94.434,143.870 94.916,144.353 95.512 M147.120 98.584 C 147.931 99.415,148.680 100.094,148.784 100.094 C 148.888 100.094,148.309 99.415,147.498 98.584 C 146.686 97.753,145.937 97.073,145.833 97.073 C 145.730 97.073,146.309 97.753,147.120 98.584 M251.355 99.056 L 249.481 101.039 251.464 99.164 C 253.306 97.423,253.620 97.073,253.338 97.073 C 253.278 97.073,252.386 97.965,251.355 99.056 M149.953 101.066 C 149.953 101.332,150.347 101.680,152.314 103.148 C 153.978 104.390,153.511 103.715,151.653 102.192 C 150.718 101.426,149.953 100.919,149.953 101.066 M248.043 101.826 C 247.460 102.328,247.120 102.733,247.288 102.726 C 247.706 102.709,249.434 101.244,249.251 101.061 C 249.169 100.980,248.626 101.325,248.043 101.826 M154.077 104.387 C 154.580 105.006,155.996 105.942,155.996 105.656 C 155.996 105.584,155.444 105.120,154.769 104.626 C 154.009 104.070,153.745 103.979,154.077 104.387 M242.510 105.996 C 240.733 107.257,240.577 107.477,241.954 106.777 C 242.592 106.453,243.335 105.922,243.605 105.596 C 244.249 104.821,244.077 104.884,242.510 105.996 M183.192 108.398 C 182.672 108.561,183.777 108.606,185.647 108.497 C 187.517 108.388,189.117 108.238,189.204 108.163 C 189.511 107.896,184.120 108.107,183.192 108.398 M194.828 108.309 C 197.385 108.374,201.464 108.374,203.893 108.308 C 206.322 108.243,204.230 108.189,199.245 108.189 C 194.259 108.190,192.271 108.243,194.828 108.309 M210.041 108.163 C 210.127 108.238,211.728 108.388,213.598 108.497 C 215.467 108.606,216.572 108.561,216.053 108.398 C 215.125 108.107,209.733 107.896,210.041 108.163 M125.590 110.293 C 125.912 110.916,126.261 111.426,126.365 111.426 C 126.469 111.426,126.290 110.916,125.968 110.293 C 125.646 109.669,125.297 109.160,125.193 109.160 C 125.089 109.160,125.268 109.669,125.590 110.293 M273.277 110.293 C 272.954 110.916,272.776 111.426,272.880 111.426 C 272.983 111.426,273.332 110.916,273.654 110.293 C 273.977 109.669,274.155 109.160,274.052 109.160 C 273.948 109.160,273.599 109.669,273.277 110.293 M222.285 109.915 C 222.701 110.094,223.296 110.240,223.607 110.240 C 223.964 110.240,223.894 110.120,223.418 109.915 C 223.003 109.736,222.408 109.590,222.096 109.590 C 221.739 109.590,221.809 109.710,222.285 109.915 M234.939 110.293 C 234.212 110.691,233.787 111.016,233.994 111.016 C 234.202 111.016,234.967 110.691,235.694 110.293 C 236.421 109.895,236.846 109.569,236.638 109.569 C 236.431 109.569,235.666 109.895,234.939 110.293 M126.549 111.992 C 126.550 112.200,126.899 112.795,127.324 113.314 C 127.837 113.942,127.965 114.005,127.706 113.503 C 127.069 112.271,126.546 111.588,126.549 111.992 M128.801 115.581 C 129.245 116.204,129.693 116.714,129.796 116.714 C 129.900 116.714,129.622 116.204,129.178 115.581 C 128.735 114.958,128.287 114.448,128.183 114.448 C 128.079 114.448,128.357 114.958,128.801 115.581 M270.066 115.581 C 269.622 116.204,269.344 116.714,269.448 116.714 C 269.552 116.714,270.000 116.204,270.444 115.581 C 270.888 114.958,271.166 114.448,271.062 114.448 C 270.958 114.448,270.510 114.958,270.066 115.581 M131.445 119.098 C 131.445 119.163,131.997 119.716,132.672 120.326 L 133.900 121.435 132.791 120.208 C 131.756 119.063,131.445 118.807,131.445 119.098 M266.082 120.585 L 264.589 122.191 266.195 120.698 C 267.687 119.309,267.973 118.980,267.688 118.980 C 267.626 118.980,266.904 119.703,266.082 120.585 M135.977 123.631 C 135.977 123.696,136.530 124.248,137.205 124.859 L 138.432 125.968 137.323 124.740 C 136.289 123.596,135.977 123.339,135.977 123.631 M261.921 124.740 L 260.812 125.968 262.040 124.859 C 262.715 124.248,263.267 123.696,263.267 123.631 C 263.267 123.339,262.956 123.596,261.921 124.740 M139.388 126.795 C 139.395 126.963,140.168 127.680,141.106 128.387 C 142.154 129.176,142.734 129.876,142.610 130.200 C 142.498 130.491,142.575 130.625,142.781 130.498 C 143.436 130.093,143.196 129.710,141.265 128.082 C 140.227 127.206,139.382 126.627,139.388 126.795 M256.649 129.187 C 256.079 129.818,256.045 130.033,256.457 130.415 C 256.855 130.783,256.899 130.777,256.676 130.382 C 256.514 130.097,256.676 129.575,257.056 129.155 C 257.421 128.752,257.634 128.423,257.530 128.423 C 257.426 128.423,257.030 128.767,256.649 129.187 M260.246 132.200 C 260.973 132.598,261.737 132.924,261.945 132.924 C 262.153 132.924,261.728 132.598,261.001 132.200 C 260.274 131.802,259.509 131.476,259.301 131.476 C 259.093 131.476,259.518 131.802,260.246 132.200 M133.805 134.510 C 132.518 135.334,132.101 135.888,133.239 135.263 C 134.106 134.787,135.463 133.737,135.222 133.729 C 135.118 133.726,134.481 134.078,133.805 134.510 M265.345 134.722 C 265.552 134.914,266.572 135.714,267.611 136.500 L 269.500 137.929 267.989 136.542 C 267.158 135.780,266.138 134.980,265.722 134.765 C 265.307 134.550,265.137 134.531,265.345 134.722 M130.929 136.575 C 130.334 137.099,129.921 137.601,130.012 137.692 C 130.103 137.784,130.665 137.350,131.260 136.729 C 132.574 135.357,132.405 135.278,130.929 136.575 M124.817 143.567 C 124.484 144.209,124.280 144.802,124.361 144.884 C 124.443 144.966,124.793 144.440,125.139 143.716 C 125.915 142.087,125.646 141.962,124.817 143.567 M273.361 149.579 C 272.640 150.421,272.506 150.879,273.086 150.521 C 273.456 150.292,274.359 148.820,274.129 148.820 C 274.064 148.820,273.718 149.162,273.361 149.579 M126.239 150.425 C 126.824 150.996,127.512 151.458,127.768 151.452 C 128.024 151.446,127.894 151.253,127.479 151.023 C 127.063 150.793,126.375 150.331,125.950 149.996 C 125.524 149.660,125.654 149.854,126.239 150.425 M128.990 151.841 C 129.405 152.020,130.085 152.161,130.500 152.155 C 131.108 152.146,131.071 152.084,130.312 151.841 C 129.020 151.428,128.027 151.428,128.990 151.841 M154.108 152.997 C 152.452 153.275,152.467 153.281,154.654 153.223 C 156.750 153.167,156.918 153.227,157.166 154.108 C 157.317 154.644,157.448 154.779,157.469 154.422 C 157.533 153.361,157.081 152.594,156.428 152.654 C 156.087 152.685,155.042 152.839,154.108 152.997 M241.752 153.694 C 241.502 154.298,241.374 155.190,241.466 155.677 C 241.596 156.361,241.646 156.284,241.686 155.335 C 241.714 154.660,242.077 153.768,242.493 153.352 C 243.021 152.824,243.092 152.597,242.728 152.597 C 242.441 152.597,242.002 153.091,241.752 153.694 M262.984 152.857 C 263.347 152.952,263.942 152.952,264.306 152.857 C 264.669 152.762,264.372 152.684,263.645 152.684 C 262.918 152.684,262.620 152.762,262.984 152.857 M138.141 153.247 C 138.811 153.331,140.001 153.332,140.785 153.250 C 141.568 153.168,141.020 153.100,139.566 153.098 C 138.111 153.097,137.470 153.164,138.141 153.247 M244.287 153.241 C 244.754 153.331,245.519 153.331,245.987 153.241 C 246.454 153.151,246.072 153.077,245.137 153.077 C 244.202 153.077,243.820 153.151,244.287 153.241 M258.074 153.250 C 258.853 153.331,260.127 153.331,260.907 153.250 C 261.686 153.168,261.048 153.101,259.490 153.101 C 257.932 153.101,257.295 153.168,258.074 153.250 M240.814 158.850 C 240.672 159.608,240.631 160.304,240.724 160.396 C 240.816 160.488,241.008 159.944,241.150 159.186 C 241.292 158.428,241.333 157.732,241.241 157.640 C 241.148 157.547,240.956 158.092,240.814 158.850 M167.940 161.568 C 168.273 162.954,168.461 163.117,168.461 162.019 C 168.461 161.221,168.753 161.398,171.010 163.561 L 173.560 166.006 170.926 163.267 C 168.048 160.275,167.564 159.999,167.940 161.568 M227.942 163.645 L 224.929 166.761 227.823 163.971 C 230.513 161.378,230.730 161.244,230.888 162.082 C 231.023 162.798,231.069 162.731,231.110 161.756 C 231.176 160.188,231.432 160.035,227.942 163.645 M168.525 164.306 C 168.544 165.287,169.139 166.899,169.152 166.006 C 169.158 165.590,169.017 164.910,168.839 164.495 C 168.640 164.032,168.518 163.959,168.525 164.306 M230.287 164.450 C 230.145 164.820,230.039 165.407,230.052 165.753 C 230.068 166.171,230.199 166.075,230.441 165.471 C 230.641 164.970,230.747 164.384,230.675 164.169 C 230.603 163.954,230.429 164.080,230.287 164.450 M169.260 167.552 C 169.236 167.988,169.599 168.668,170.066 169.063 C 170.909 169.777,170.911 169.777,170.294 169.027 C 169.952 168.612,169.589 167.932,169.488 167.517 C 169.311 166.790,169.302 166.791,169.260 167.552 M176.016 168.650 C 176.535 169.273,177.002 169.854,177.054 169.940 C 177.106 170.027,177.231 170.014,177.333 169.913 C 177.435 169.811,176.968 169.230,176.296 168.622 L 175.074 167.517 176.016 168.650 M222.639 168.933 L 221.530 170.161 222.757 169.051 C 223.432 168.441,223.985 167.889,223.985 167.824 C 223.985 167.532,223.673 167.789,222.639 168.933 M172.238 170.519 C 172.238 170.623,172.748 170.971,173.371 171.294 C 173.994 171.616,174.504 171.795,174.504 171.691 C 174.504 171.587,173.994 171.238,173.371 170.916 C 172.748 170.594,172.238 170.415,172.238 170.519 M225.779 170.943 C 224.367 171.709,224.453 172.028,225.873 171.294 C 226.497 170.971,227.007 170.627,227.007 170.529 C 227.007 170.285,226.966 170.299,225.779 170.943 M180.673 173.685 C 182.082 175.104,183.182 176.481,183.118 176.743 C 183.055 177.006,183.399 177.374,183.884 177.562 C 184.406 177.764,184.714 177.764,184.639 177.562 C 184.440 177.023,178.725 171.105,178.403 171.105 C 178.243 171.105,179.265 172.266,180.673 173.685 M216.808 174.951 C 214.384 177.613,214.153 178.029,215.361 177.562 C 215.845 177.374,216.190 177.007,216.127 176.746 C 216.064 176.485,216.822 175.449,217.813 174.443 C 218.803 173.438,219.449 172.628,219.249 172.643 C 219.049 172.658,217.951 173.696,216.808 174.951 M177.148 173.541 C 177.148 173.644,177.658 173.993,178.281 174.315 C 178.905 174.638,179.415 174.816,179.415 174.713 C 179.415 174.609,178.905 174.260,178.281 173.938 C 177.658 173.615,177.148 173.437,177.148 173.541 M220.869 173.965 C 219.457 174.731,219.543 175.050,220.963 174.315 C 221.586 173.993,222.096 173.649,222.096 173.550 C 222.096 173.307,222.056 173.321,220.869 173.965 M162.822 173.938 C 162.822 174.145,163.065 174.740,163.362 175.260 C 163.659 175.779,163.901 176.034,163.901 175.826 C 163.901 175.619,163.659 175.024,163.362 174.504 C 163.065 173.985,162.822 173.730,162.822 173.938 M234.258 177.734 C 233.594 179.082,233.058 180.309,233.069 180.460 C 233.079 180.612,233.685 179.572,234.415 178.149 C 235.146 176.725,235.681 175.498,235.605 175.422 C 235.529 175.346,234.923 176.387,234.258 177.734 M232.106 182.059 C 231.783 182.682,231.605 183.192,231.709 183.192 C 231.813 183.192,232.161 182.682,232.483 182.059 C 232.806 181.435,232.984 180.925,232.881 180.925 C 232.777 180.925,232.428 181.435,232.106 182.059 M228.605 191.879 C 228.605 192.606,228.683 192.904,228.778 192.540 C 228.873 192.177,228.873 191.582,228.778 191.218 C 228.683 190.855,228.605 191.152,228.605 191.879 M170.479 194.334 C 170.480 195.996,170.547 196.629,170.626 195.741 C 170.706 194.852,170.705 193.493,170.624 192.719 C 170.543 191.945,170.477 192.672,170.479 194.334 M228.620 196.789 C 228.620 197.724,228.694 198.107,228.784 197.639 C 228.874 197.172,228.874 196.407,228.784 195.940 C 228.694 195.472,228.620 195.855,228.620 196.789 M169.830 199.481 C 169.515 201.055,169.820 201.360,170.161 199.811 C 170.304 199.158,170.343 198.545,170.246 198.449 C 170.150 198.353,169.963 198.817,169.830 199.481 M167.192 209.160 C 166.906 210.894,166.941 213.301,167.271 214.465 C 167.406 214.943,167.529 213.625,167.544 211.538 C 167.574 207.348,167.535 207.084,167.192 209.160 M231.666 211.520 C 231.666 213.078,231.733 213.716,231.814 212.937 C 231.896 212.158,231.896 210.883,231.814 210.104 C 231.733 209.325,231.666 209.962,231.666 211.520 M167.758 216.808 C 167.758 217.120,167.905 217.715,168.083 218.130 C 168.288 218.606,168.408 218.676,168.408 218.319 C 168.408 218.008,168.262 217.413,168.083 216.997 C 167.878 216.521,167.758 216.451,167.758 216.808 M229.913 220.024 C 229.568 220.748,229.363 221.341,229.458 221.341 C 229.717 221.341,230.863 219.028,230.690 218.855 C 230.608 218.773,230.259 219.299,229.913 220.024 M171.483 223.796 C 172.187 224.523,172.849 225.118,172.953 225.118 C 173.057 225.118,172.565 224.523,171.860 223.796 C 171.156 223.069,170.494 222.474,170.390 222.474 C 170.286 222.474,170.778 223.069,171.483 223.796 M225.712 224.956 C 225.312 225.249,225.057 225.561,225.146 225.650 C 225.235 225.739,225.635 225.572,226.035 225.280 C 226.435 224.987,226.690 224.675,226.601 224.586 C 226.512 224.497,226.112 224.664,225.712 224.956 M221.474 227.004 C 221.028 227.184,220.558 227.502,220.429 227.710 C 220.237 228.020,222.280 227.208,222.820 226.760 C 223.104 226.524,222.303 226.670,221.474 227.004 M178.302 227.573 C 178.307 228.073,179.360 229.453,179.574 229.240 C 179.665 229.148,179.416 228.650,179.019 228.134 C 178.623 227.618,178.300 227.365,178.302 227.573 M182.420 232.042 C 182.934 232.704,187.006 234.958,187.619 234.920 C 187.781 234.910,186.893 234.381,185.647 233.744 C 184.400 233.108,183.044 232.309,182.632 231.969 C 181.922 231.383,181.911 231.387,182.420 232.042 M213.409 233.805 C 212.682 234.204,212.223 234.536,212.389 234.545 C 212.789 234.566,214.920 233.458,214.920 233.229 C 214.920 232.982,214.898 232.990,213.409 233.805 M188.480 235.299 C 188.791 235.510,189.372 235.685,189.770 235.688 C 190.737 235.696,190.435 235.480,189.046 235.169 C 188.219 234.984,188.066 235.019,188.480 235.299 M195.940 236.716 C 196.407 236.806,197.172 236.806,197.639 236.716 C 198.107 236.626,197.724 236.552,196.789 236.552 C 195.855 236.552,195.472 236.626,195.940 236.716 M201.605 236.716 C 202.073 236.806,202.838 236.806,203.305 236.716 C 203.772 236.626,203.390 236.552,202.455 236.552 C 201.520 236.552,201.138 236.626,201.605 236.716 M98.121 253.724 C 99.010 253.803,100.370 253.802,101.143 253.721 C 101.917 253.640,101.190 253.575,99.528 253.576 C 97.866 253.578,97.233 253.644,98.121 253.724 M94.980 254.297 C 94.881 254.556,94.844 267.432,94.898 282.908 L 94.995 311.048 99.434 311.067 L 103.873 311.086 99.529 310.961 L 95.184 310.835 95.184 282.550 C 95.184 260.275,95.284 254.225,95.656 254.075 C 96.026 253.925,96.024 253.878,95.644 253.854 C 95.378 253.838,95.079 254.037,94.980 254.297 M108.687 254.091 C 109.155 254.181,109.920 254.181,110.387 254.091 C 110.855 254.001,110.472 253.927,109.537 253.927 C 108.602 253.927,108.220 254.001,108.687 254.091 M181.933 254.454 C 181.585 254.802,181.614 262.048,181.964 262.265 C 182.120 262.361,182.247 260.586,182.247 258.321 C 182.247 256.056,182.233 254.202,182.216 254.202 C 182.199 254.202,182.071 254.315,181.933 254.454 M279.305 254.674 C 279.206 254.934,279.169 267.724,279.222 283.097 L 279.320 311.048 286.497 311.060 L 293.673 311.073 286.586 310.958 L 279.500 310.843 279.599 282.522 C 279.653 266.946,279.650 254.202,279.592 254.202 C 279.533 254.202,279.404 254.415,279.305 254.674 M292.918 254.601 C 294.936 255.019,296.321 255.004,294.995 254.580 C 294.476 254.413,293.456 254.280,292.729 254.283 L 291.407 254.289 292.918 254.601 M116.336 255.229 C 116.648 255.346,117.710 255.845,118.697 256.339 C 119.684 256.833,120.491 257.152,120.491 257.048 C 120.491 256.751,116.795 254.954,116.254 254.987 C 115.938 255.007,115.967 255.091,116.336 255.229 M122.568 259.112 C 123.380 259.943,124.129 260.623,124.233 260.623 C 124.337 260.623,123.758 259.943,122.946 259.112 C 122.135 258.281,121.386 257.602,121.282 257.602 C 121.178 257.602,121.757 258.281,122.568 259.112 M303.683 258.924 C 304.387 259.651,305.049 260.246,305.153 260.246 C 305.257 260.246,304.765 259.651,304.060 258.924 C 303.356 258.196,302.694 257.602,302.590 257.602 C 302.486 257.602,302.978 258.196,303.683 258.924 M105.292 262.024 C 105.762 262.114,106.442 262.110,106.803 262.016 C 107.164 261.921,106.780 261.847,105.949 261.852 C 105.118 261.856,104.823 261.933,105.292 262.024 M184.703 262.767 C 189.764 263.041,194.902 263.055,194.902 262.795 C 194.901 262.639,192.139 262.544,188.763 262.583 C 185.387 262.623,183.560 262.705,184.703 262.767 M203.840 262.764 C 203.702 262.902,203.588 273.791,203.588 286.960 L 203.588 310.905 199.262 310.788 C 196.882 310.723,195.070 310.804,195.234 310.967 C 195.398 311.130,197.387 311.215,199.655 311.156 L 203.777 311.048 203.874 286.978 L 203.972 262.909 209.918 262.794 L 215.864 262.680 209.978 262.596 C 206.741 262.550,203.979 262.625,203.840 262.764 M288.196 262.824 C 288.196 262.996,288.706 263.062,289.330 262.970 C 289.953 262.879,290.463 262.738,290.463 262.658 C 290.463 262.577,289.953 262.512,289.330 262.512 C 288.706 262.512,288.196 262.652,288.196 262.824 M291.501 262.778 C 291.969 262.868,292.734 262.868,293.201 262.778 C 293.669 262.688,293.286 262.615,292.351 262.615 C 291.416 262.615,291.034 262.688,291.501 262.778 M297.262 264.465 C 298.208 265.387,298.687 265.557,298.223 264.805 C 298.086 264.585,297.602 264.211,297.146 263.974 C 296.395 263.584,296.406 263.631,297.262 264.465 M116.331 264.970 C 117.835 266.781,117.961 266.898,117.551 266.096 C 117.337 265.678,116.763 264.999,116.277 264.588 C 115.423 263.866,115.425 263.879,116.331 264.970 M307.690 266.100 C 308.001 267.489,308.217 267.790,308.210 266.824 C 308.206 266.426,308.031 265.845,307.820 265.534 C 307.540 265.120,307.505 265.273,307.690 266.100 M126.782 266.856 C 126.909 267.686,127.075 268.437,127.151 268.524 C 127.437 268.848,127.223 266.825,126.895 266.100 C 126.656 265.574,126.622 265.803,126.782 266.856 M299.768 271.062 C 299.635 272.036,299.598 272.906,299.687 272.995 C 299.776 273.084,299.967 272.369,300.112 271.405 C 300.256 270.442,300.293 269.572,300.193 269.472 C 300.093 269.372,299.902 270.087,299.768 271.062 M126.969 273.151 C 126.938 273.706,126.814 274.471,126.695 274.851 C 126.489 275.505,126.501 275.506,126.908 274.872 C 127.145 274.503,127.268 273.739,127.182 273.173 L 127.025 272.144 126.969 273.151 M116.550 276.393 C 115.734 277.436,115.668 277.611,116.302 277.058 C 117.059 276.397,118.058 274.976,117.766 274.976 C 117.707 274.976,117.159 275.614,116.550 276.393 M113.881 278.401 C 112.611 279.215,112.785 279.356,114.241 278.693 C 114.770 278.452,115.203 278.112,115.203 277.937 C 115.203 277.543,115.244 277.528,113.881 278.401 M288.196 278.470 C 288.196 278.626,289.429 278.730,290.935 278.702 C 293.819 278.648,293.504 278.479,290.179 278.296 C 289.088 278.236,288.196 278.314,288.196 278.470 M103.936 279.320 C 104.050 279.972,104.379 280.081,106.330 280.113 C 108.303 280.145,108.351 280.131,106.704 280.002 C 105.513 279.909,104.629 279.616,104.310 279.209 C 103.843 278.615,103.814 278.623,103.936 279.320 M121.462 283.124 C 121.062 283.417,120.808 283.729,120.897 283.818 C 120.986 283.907,121.386 283.740,121.786 283.448 C 122.186 283.156,122.440 282.843,122.351 282.754 C 122.262 282.665,121.862 282.832,121.462 283.124 M309.228 284.423 C 309.889 285.148,310.864 286.506,311.395 287.441 C 311.927 288.376,312.363 288.962,312.366 288.743 C 312.373 288.075,310.278 285.044,309.118 284.045 C 308.096 283.164,308.103 283.188,309.228 284.423 M288.196 286.213 C 288.195 286.369,289.597 286.451,291.312 286.395 C 296.961 286.211,297.520 286.063,292.823 285.996 C 290.279 285.960,288.196 286.058,288.196 286.213 M105.938 288.857 C 106.468 289.429,106.996 290.194,107.112 290.557 C 107.227 290.921,107.491 291.218,107.698 291.218 C 107.904 291.218,107.524 290.453,106.853 289.518 C 106.181 288.584,105.484 287.819,105.303 287.819 C 105.122 287.819,105.408 288.286,105.938 288.857 M304.551 294.240 C 304.551 295.382,304.622 295.850,304.709 295.279 C 304.795 294.707,304.795 293.772,304.709 293.201 C 304.622 292.630,304.551 293.097,304.551 294.240 M313.243 295.184 C 313.245 296.431,313.315 296.895,313.399 296.216 C 313.483 295.537,313.482 294.517,313.395 293.950 C 313.309 293.382,313.241 293.938,313.243 295.184 M110.293 294.995 C 110.737 295.619,111.185 296.128,111.288 296.128 C 111.392 296.128,111.114 295.619,110.670 294.995 C 110.227 294.372,109.779 293.862,109.675 293.862 C 109.571 293.862,109.849 294.372,110.293 294.995 M122.269 297.436 C 123.057 298.571,123.835 299.506,123.997 299.514 C 124.160 299.521,123.587 298.593,122.724 297.450 C 120.704 294.774,120.414 294.765,122.269 297.436 M303.423 298.425 C 302.975 299.244,302.766 299.817,302.959 299.697 C 303.378 299.438,304.549 297.247,304.366 297.064 C 304.296 296.994,303.872 297.606,303.423 298.425 M114.825 301.332 C 114.825 301.563,115.266 302.229,115.804 302.812 L 116.783 303.872 115.927 302.550 C 114.811 300.828,114.825 300.844,114.825 301.332 M126.478 303.225 C 126.944 303.880,127.521 304.536,127.759 304.684 C 127.998 304.831,127.813 304.417,127.347 303.762 C 126.881 303.108,126.304 302.452,126.065 302.304 C 125.826 302.156,126.012 302.571,126.478 303.225 M294.145 302.816 C 294.613 302.906,295.378 302.906,295.845 302.816 C 296.313 302.726,295.930 302.652,294.995 302.652 C 294.060 302.652,293.678 302.726,294.145 302.816 M309.710 305.288 C 309.008 306.171,308.733 306.653,309.098 306.360 C 309.785 305.808,311.404 303.683,311.137 303.683 C 311.054 303.683,310.412 304.405,309.710 305.288 M117.240 304.910 C 117.580 305.378,118.053 306.143,118.291 306.610 C 118.529 307.077,118.877 307.460,119.064 307.460 C 119.252 307.460,118.856 306.695,118.184 305.760 C 117.513 304.825,116.887 304.060,116.793 304.060 C 116.699 304.060,116.900 304.443,117.240 304.910 M128.801 306.327 C 129.245 306.950,129.693 307.460,129.796 307.460 C 129.900 307.460,129.622 306.950,129.178 306.327 C 128.735 305.703,128.287 305.194,128.183 305.194 C 128.079 305.194,128.357 305.703,128.801 306.327 M131.197 309.661 C 132.200 310.770,132.036 310.829,127.573 310.955 L 123.324 311.076 127.762 311.156 C 131.109 311.217,132.197 311.121,132.188 310.765 C 132.173 310.185,131.283 308.971,130.872 308.971 C 130.707 308.971,130.854 309.282,131.197 309.661 M299.717 310.482 C 298.754 310.895,299.747 310.895,301.039 310.482 C 301.798 310.238,301.835 310.177,301.228 310.168 C 300.812 310.162,300.132 310.303,299.717 310.482 M295.279 311.126 C 295.746 311.216,296.511 311.216,296.978 311.126 C 297.446 311.036,297.063 310.962,296.128 310.962 C 295.194 310.962,294.811 311.036,295.279 311.126 " stroke="none" fill="#3c0b0a" fill-rule="evenodd"></path><path id="path3" d="M135.010 55.468 C 132.196 58.155,126.677 65.345,127.429 65.345 C 127.520 65.345,128.189 64.452,128.915 63.362 C 129.642 62.271,130.604 60.954,131.054 60.434 C 135.777 54.983,135.682 55.068,136.815 55.295 C 137.484 55.429,137.815 55.369,137.674 55.141 C 137.298 54.533,135.796 54.717,135.010 55.468 M261.630 55.020 C 261.202 55.449,261.403 56.778,262.134 58.357 C 262.998 60.222,263.082 59.941,262.312 57.760 C 260.724 53.259,263.672 54.684,268.235 60.623 C 268.714 61.246,269.305 61.964,269.549 62.218 C 269.793 62.473,270.363 63.280,270.815 64.013 C 271.727 65.487,272.238 65.831,271.532 64.495 C 269.001 59.703,262.841 53.809,261.630 55.020 M136.965 57.645 C 136.175 59.963,136.426 60.213,137.285 57.965 C 137.648 57.013,137.862 56.150,137.760 56.047 C 137.657 55.945,137.300 56.664,136.965 57.645 M135.770 61.051 C 135.636 61.647,135.374 62.729,135.187 63.456 C 135.001 64.183,134.875 65.458,134.907 66.289 L 134.965 67.800 135.116 66.478 C 135.199 65.751,135.515 64.069,135.818 62.740 C 136.122 61.411,136.290 60.243,136.192 60.145 C 136.094 60.048,135.904 60.455,135.770 61.051 M262.914 60.246 C 262.916 60.453,263.164 61.643,263.466 62.890 C 264.813 68.445,264.525 75.875,262.756 81.231 C 262.245 82.777,261.716 84.381,261.579 84.797 C 261.435 85.236,261.574 85.135,261.910 84.558 C 264.276 80.498,265.346 70.129,264.068 63.645 C 263.604 61.290,262.909 59.243,262.914 60.246 M126.359 66.699 C 126.007 67.237,125.805 67.763,125.910 67.868 C 126.015 67.973,126.373 67.533,126.705 66.891 C 127.440 65.470,127.237 65.359,126.359 66.699 M272.021 65.911 C 272.571 67.201,276.109 74.082,275.905 73.466 C 275.189 71.304,274.743 70.260,273.725 68.366 C 272.741 66.535,271.564 64.839,272.021 65.911 M134.598 71.010 C 134.598 72.776,134.664 73.499,134.743 72.616 C 134.823 71.733,134.823 70.288,134.743 69.405 C 134.664 68.522,134.598 69.245,134.598 71.010 M124.512 70.359 C 123.183 73.265,121.542 78.129,121.716 78.650 C 121.796 78.891,122.164 78.010,122.534 76.692 C 122.904 75.374,123.787 73.020,124.498 71.462 C 125.208 69.903,125.714 68.553,125.622 68.462 C 125.531 68.370,125.031 69.224,124.512 70.359 M276.110 74.635 C 276.110 75.325,277.346 78.965,277.521 78.790 C 277.735 78.576,276.539 74.410,276.263 74.410 C 276.179 74.410,276.110 74.511,276.110 74.635 M134.888 75.901 C 134.843 77.244,136.637 83.697,136.965 83.369 C 137.066 83.268,136.799 82.148,136.371 80.880 C 135.944 79.612,135.446 77.680,135.264 76.586 C 134.992 74.959,134.925 74.835,134.888 75.901 M121.058 80.831 C 120.914 81.484,120.882 82.103,120.986 82.207 C 121.090 82.311,121.292 81.862,121.435 81.209 C 121.579 80.556,121.611 79.937,121.507 79.833 C 121.403 79.729,121.201 80.178,121.058 80.831 M277.653 80.453 C 277.641 80.973,277.797 81.653,277.998 81.964 C 278.479 82.708,278.479 81.382,277.998 80.264 C 277.701 79.573,277.672 79.588,277.653 80.453 M120.352 86.217 C 120.168 87.443,120.168 89.670,120.353 91.316 L 120.680 94.240 120.792 91.690 C 120.853 90.288,120.853 87.993,120.791 86.591 L 120.679 84.042 120.352 86.217 M278.520 88.952 C 278.521 91.445,278.582 92.415,278.656 91.109 C 278.730 89.802,278.729 87.763,278.655 86.576 C 278.580 85.390,278.519 86.459,278.520 88.952 M138.621 87.360 C 138.621 87.730,140.914 91.407,141.145 91.407 C 141.251 91.407,140.873 90.600,140.307 89.613 C 139.227 87.734,138.621 86.923,138.621 87.360 M259.287 89.029 C 257.375 92.324,254.805 95.706,252.030 98.576 C 248.613 102.109,248.443 102.609,251.773 99.328 C 255.138 96.013,261.042 87.923,260.495 87.375 C 260.408 87.289,259.865 88.033,259.287 89.029 M142.112 93.102 C 142.581 93.827,143.094 94.421,143.252 94.424 C 143.410 94.427,143.155 93.836,142.685 93.111 C 142.216 92.387,141.703 91.792,141.545 91.789 C 141.387 91.787,141.642 92.377,142.112 93.102 M144.553 96.128 C 145.812 97.732,149.953 101.905,149.953 101.570 C 149.953 101.460,148.471 99.851,146.660 97.994 C 144.849 96.137,143.900 95.297,144.553 96.128 M277.830 96.527 C 277.688 97.285,277.657 97.990,277.761 98.094 C 277.864 98.198,278.066 97.663,278.208 96.905 C 278.350 96.147,278.382 95.442,278.278 95.338 C 278.174 95.234,277.972 95.769,277.830 96.527 M120.933 96.317 C 120.927 96.837,121.068 97.602,121.246 98.017 L 121.571 98.772 121.560 98.017 C 121.554 97.602,121.413 96.837,121.246 96.317 L 120.944 95.373 120.933 96.317 M121.644 99.411 C 121.603 100.726,125.239 109.826,125.644 109.421 C 125.747 109.317,125.450 108.494,124.983 107.591 C 124.515 106.688,123.578 104.334,122.899 102.361 C 122.220 100.387,121.655 99.060,121.644 99.411 M277.081 99.933 C 276.942 100.486,276.913 101.024,277.017 101.128 C 277.121 101.232,277.320 100.864,277.459 100.310 C 277.597 99.757,277.626 99.219,277.522 99.115 C 277.418 99.011,277.220 99.379,277.081 99.933 M246.270 103.539 C 242.876 106.150,242.192 106.957,245.054 104.973 C 247.094 103.559,249.384 101.559,248.885 101.627 C 248.797 101.639,247.620 102.499,246.270 103.539 M275.935 103.320 C 275.572 104.272,275.353 105.129,275.448 105.225 C 275.544 105.321,275.920 104.620,276.284 103.668 C 276.647 102.716,276.867 101.859,276.771 101.763 C 276.675 101.667,276.299 102.367,275.935 103.320 M152.519 103.563 C 153.188 104.405,158.644 108.149,158.871 107.922 C 158.971 107.821,157.983 107.045,156.675 106.197 C 155.367 105.348,153.787 104.270,153.163 103.801 C 152.540 103.332,152.250 103.225,152.519 103.563 M273.640 108.699 C 271.876 112.122,271.712 112.512,272.255 111.992 C 272.773 111.497,275.458 106.116,275.277 105.935 C 275.200 105.858,274.464 107.102,273.640 108.699 M239.925 107.895 C 238.617 108.640,237.618 109.321,237.706 109.409 C 237.882 109.585,242.493 106.962,242.493 106.686 C 242.493 106.434,242.499 106.431,239.925 107.895 M159.585 108.328 C 160.198 108.950,162.868 110.345,163.066 110.148 C 163.166 110.048,162.339 109.511,161.227 108.956 C 160.116 108.400,159.377 108.117,159.585 108.328 M186.780 108.432 C 185.326 108.551,191.091 108.678,199.591 108.715 C 208.091 108.752,214.950 108.686,214.834 108.570 C 214.545 108.281,190.085 108.161,186.780 108.432 M180.170 109.160 L 178.848 109.438 180.359 109.461 C 181.190 109.474,182.210 109.338,182.625 109.160 C 183.609 108.737,182.178 108.737,180.170 109.160 M216.808 109.160 C 217.328 109.326,218.347 109.459,219.075 109.455 L 220.397 109.448 219.263 109.160 C 217.601 108.737,215.487 108.737,216.808 109.160 M176.959 109.915 L 176.204 110.240 176.959 110.260 C 177.375 110.272,177.970 110.116,178.281 109.915 C 179.032 109.430,178.089 109.430,176.959 109.915 M220.963 109.915 C 221.275 110.116,221.870 110.272,222.285 110.260 L 223.041 110.240 222.285 109.915 C 221.156 109.430,220.212 109.430,220.963 109.915 M126.926 111.985 C 128.149 114.242,130.926 118.225,131.276 118.225 C 131.378 118.225,130.523 116.885,129.376 115.248 C 128.229 113.611,127.286 112.123,127.281 111.943 C 127.277 111.762,126.920 111.190,126.487 110.670 C 126.000 110.085,126.167 110.584,126.926 111.985 M163.551 110.472 C 163.551 110.728,165.460 111.664,166.572 111.953 C 167.092 112.088,166.677 111.769,165.652 111.245 C 163.676 110.236,163.551 110.190,163.551 110.472 M172.238 111.446 C 170.534 112.125,169.054 112.490,168.524 112.363 C 167.965 112.229,167.731 112.295,167.885 112.544 C 168.182 113.025,170.064 113.063,170.557 112.598 C 170.754 112.412,172.106 111.826,173.560 111.297 C 175.014 110.767,175.949 110.331,175.637 110.326 C 175.326 110.322,173.796 110.826,172.238 111.446 M224.363 110.830 C 224.882 111.143,225.528 111.405,225.797 111.412 C 226.067 111.420,226.991 111.766,227.851 112.181 C 229.900 113.171,230.349 113.142,233.247 111.827 C 236.590 110.312,236.346 110.068,232.919 111.499 L 230.144 112.657 227.726 111.705 C 226.395 111.181,224.882 110.642,224.363 110.507 L 223.418 110.261 224.363 110.830 M271.226 113.265 C 269.534 116.426,261.614 124.953,257.496 128.045 C 256.528 128.772,255.731 129.636,255.725 129.965 C 255.712 130.610,257.445 131.727,257.842 131.330 C 257.975 131.197,257.635 130.918,257.087 130.709 C 255.686 130.176,255.808 129.881,258.263 127.865 C 264.138 123.039,272.657 113.513,271.834 112.690 C 271.726 112.582,271.453 112.841,271.226 113.265 M132.598 119.995 C 134.908 122.467,137.613 125.016,140.415 127.364 C 143.499 129.947,143.558 130.068,142.115 130.851 C 141.544 131.161,141.331 131.416,141.643 131.418 C 143.891 131.430,143.943 129.693,141.744 128.045 C 140.773 127.318,138.108 124.896,135.821 122.663 C 131.713 118.651,130.073 117.293,132.598 119.995 M259.490 132.200 C 260.217 132.598,260.982 132.924,261.190 132.924 C 261.398 132.924,260.973 132.598,260.246 132.200 C 259.518 131.802,258.754 131.476,258.546 131.476 C 258.338 131.476,258.763 131.802,259.490 132.200 M133.486 135.035 C 131.310 136.468,126.341 141.198,126.667 141.524 C 126.785 141.642,127.343 141.189,127.907 140.519 C 129.714 138.371,131.578 136.735,133.805 135.341 C 135.000 134.593,135.977 133.921,135.977 133.846 C 135.977 133.519,135.281 133.851,133.486 135.035 M263.267 133.869 C 263.267 133.956,263.905 134.420,264.684 134.901 C 267.731 136.780,271.154 140.031,273.037 142.835 C 273.896 144.114,274.599 144.993,274.599 144.789 C 274.599 144.103,272.341 140.999,270.432 139.059 C 267.982 136.571,263.267 133.155,263.267 133.869 M125.099 143.731 C 123.704 146.601,124.364 149.103,126.924 150.660 C 130.238 152.676,146.666 154.058,154.259 152.961 C 157.236 152.530,157.156 152.495,157.522 154.387 L 157.798 155.807 157.841 154.437 C 157.908 152.350,157.570 152.250,151.862 152.648 C 143.243 153.250,130.409 152.132,127.266 150.507 C 124.840 149.252,124.081 146.316,125.518 143.744 C 126.048 142.796,126.357 142.021,126.205 142.021 C 126.054 142.021,125.556 142.790,125.099 143.731 M274.456 146.637 C 274.146 148.281,272.623 150.236,271.233 150.774 C 267.508 152.216,255.420 153.156,247.214 152.643 C 241.702 152.298,241.349 152.349,241.385 153.487 C 241.410 154.278,241.420 154.277,241.832 153.421 C 242.139 152.783,242.466 152.604,243.034 152.761 C 247.805 154.082,268.227 152.817,271.766 150.981 C 273.438 150.114,275.301 146.953,274.879 145.700 C 274.792 145.442,274.602 145.864,274.456 146.637 M240.772 157.297 C 240.630 158.055,240.599 158.760,240.703 158.864 C 240.806 158.968,241.008 158.433,241.150 157.675 C 241.292 156.917,241.323 156.212,241.220 156.108 C 241.116 156.004,240.914 156.539,240.772 157.297 M157.932 156.941 C 157.901 157.608,158.621 160.775,159.809 165.194 C 160.025 165.994,160.284 166.565,160.386 166.463 C 160.488 166.361,160.220 165.026,159.791 163.498 C 159.361 161.969,158.776 159.698,158.489 158.451 C 158.203 157.205,157.952 156.525,157.932 156.941 M239.751 161.908 C 238.642 166.389,238.634 166.431,239.015 165.817 C 239.537 164.975,240.718 160.304,240.543 159.777 C 240.459 159.526,240.103 160.485,239.751 161.908 M167.705 159.833 C 167.705 159.917,170.552 162.885,174.032 166.428 C 187.183 179.818,186.954 179.465,179.669 175.115 C 178.043 174.144,176.812 173.511,176.934 173.708 C 177.056 173.905,177.876 174.480,178.757 174.986 C 179.638 175.492,181.369 176.525,182.603 177.282 C 184.872 178.674,185.836 178.972,185.836 178.280 C 185.836 178.071,182.345 174.351,178.079 170.013 C 173.813 165.674,170.031 161.808,169.675 161.420 C 168.907 160.585,167.705 159.617,167.705 159.833 M225.164 165.895 C 222.039 169.055,219.545 171.701,219.620 171.776 C 219.695 171.851,222.338 169.309,225.494 166.126 L 231.231 160.340 231.033 162.020 C 230.904 163.115,230.956 163.509,231.182 163.153 C 231.633 162.440,231.641 160.151,231.191 160.151 C 231.000 160.151,228.288 162.736,225.164 165.895 M167.781 162.040 C 167.781 162.559,167.917 163.409,168.083 163.928 L 168.386 164.873 168.386 163.928 C 168.386 163.409,168.249 162.559,168.083 162.040 L 167.781 161.095 167.781 162.040 M168.525 165.817 C 168.519 166.336,168.660 167.101,168.839 167.517 L 169.163 168.272 169.152 167.517 C 169.146 167.101,169.005 166.336,168.839 165.817 L 168.536 164.873 168.525 165.817 M230.238 166.127 C 230.083 166.817,230.049 167.475,230.163 167.588 C 230.447 167.872,230.897 165.964,230.688 165.361 C 230.595 165.092,230.393 165.437,230.238 166.127 M160.540 167.328 C 160.540 167.639,160.705 168.149,160.907 168.461 C 161.232 168.964,161.273 168.964,161.273 168.461 C 161.273 168.149,161.108 167.639,160.907 167.328 C 160.581 166.824,160.540 166.824,160.540 167.328 M229.084 169.027 C 228.669 169.443,227.904 170.090,227.384 170.466 C 226.838 170.861,227.077 170.795,227.951 170.311 C 229.814 169.277,230.151 168.991,229.976 168.588 C 229.901 168.414,229.500 168.612,229.084 169.027 M169.216 168.796 C 169.216 169.168,172.235 171.234,172.456 171.013 C 172.537 170.931,171.842 170.327,170.910 169.670 C 169.979 169.014,169.216 168.620,169.216 168.796 M237.192 170.047 C 235.945 173.299,235.737 173.917,235.851 174.032 C 235.919 174.100,236.448 173.042,237.026 171.681 C 237.604 170.321,237.986 169.116,237.874 169.004 C 237.762 168.892,237.455 169.361,237.192 170.047 M161.311 169.453 C 161.273 170.060,162.427 172.732,162.636 172.523 C 162.732 172.427,162.479 171.601,162.074 170.688 C 161.669 169.775,161.326 169.219,161.311 169.453 M172.993 171.234 C 172.993 171.461,175.959 173.373,176.290 173.359 C 176.451 173.352,176.242 173.085,175.826 172.764 C 174.923 172.066,172.993 171.024,172.993 171.234 M223.879 172.456 C 222.691 173.199,221.719 173.890,221.719 173.991 C 221.719 174.235,224.302 172.770,225.496 171.850 C 226.986 170.701,226.235 170.982,223.879 172.456 M162.801 173.211 C 162.798 173.435,164.307 176.664,166.154 180.388 C 170.524 189.195,170.540 189.249,170.529 194.865 C 170.522 198.356,170.602 199.175,170.844 198.076 C 171.273 196.128,170.898 190.242,170.209 188.102 C 169.602 186.219,162.809 172.565,162.801 173.211 M215.651 175.692 C 213.618 178.051,213.235 178.659,213.787 178.659 C 214.545 178.659,219.963 175.520,221.152 174.392 C 221.695 173.878,219.953 174.798,217.753 176.189 C 214.106 178.495,213.633 178.286,216.322 175.556 C 217.301 174.562,217.928 173.749,217.715 173.749 C 217.501 173.749,216.573 174.623,215.651 175.692 M233.849 177.758 C 232.985 179.560,232.343 181.099,232.423 181.179 C 232.502 181.259,233.275 179.851,234.140 178.049 C 235.004 176.247,235.646 174.708,235.566 174.628 C 235.486 174.548,234.714 175.957,233.849 177.758 M229.646 185.947 C 227.751 190.230,227.673 197.406,229.466 202.571 C 230.028 204.193,230.568 205.440,230.666 205.343 C 230.763 205.246,230.384 203.919,229.824 202.394 C 228.027 197.507,228.136 190.043,230.063 186.053 C 230.457 185.238,230.697 184.490,230.597 184.390 C 230.497 184.290,230.069 184.991,229.646 185.947 M169.236 202.475 C 168.744 203.922,168.422 205.187,168.522 205.286 C 168.622 205.386,169.095 204.273,169.574 202.813 C 170.053 201.353,170.374 200.088,170.288 200.002 C 170.202 199.915,169.729 201.029,169.236 202.475 M230.816 206.421 C 230.805 206.837,230.960 207.432,231.161 207.743 C 231.647 208.494,231.647 207.550,231.161 206.421 L 230.837 205.666 230.816 206.421 M167.441 211.898 C 167.441 213.041,167.512 213.508,167.598 212.937 C 167.685 212.365,167.685 211.431,167.598 210.859 C 167.512 210.288,167.441 210.755,167.441 211.898 M231.000 215.891 C 230.861 216.445,230.820 216.970,230.909 217.059 C 230.998 217.148,231.184 216.768,231.323 216.215 C 231.462 215.661,231.503 215.135,231.414 215.046 C 231.325 214.957,231.139 215.337,231.000 215.891 M229.576 219.752 C 229.016 220.938,228.106 222.386,227.555 222.971 C 227.003 223.556,226.634 224.116,226.734 224.216 C 227.213 224.695,230.990 218.725,230.711 217.930 C 230.647 217.747,230.136 218.567,229.576 219.752 M168.475 218.240 C 168.434 219.671,171.252 223.609,173.423 225.155 C 174.621 226.008,179.163 227.893,178.867 227.415 C 178.766 227.252,177.871 226.813,176.877 226.440 C 173.440 225.148,170.998 222.939,169.432 219.702 C 168.913 218.630,168.482 217.972,168.475 218.240 M222.654 226.143 C 220.678 226.951,217.830 229.665,218.977 229.646 C 219.134 229.643,219.620 229.091,220.056 228.418 C 220.636 227.524,221.423 227.001,222.984 226.473 C 224.158 226.076,225.118 225.608,225.118 225.434 C 225.118 225.260,225.076 225.139,225.024 225.165 C 224.972 225.191,223.905 225.631,222.654 226.143 M181.303 230.853 C 183.141 232.528,188.233 235.129,190.368 235.482 C 191.183 235.617,190.748 235.362,189.235 234.817 C 185.198 233.363,183.316 232.280,181.084 230.123 C 180.600 229.655,180.069 229.280,179.904 229.288 C 179.739 229.297,180.368 230.001,181.303 230.853 M216.289 231.720 C 215.284 232.523,212.689 233.812,210.994 234.351 C 210.601 234.476,210.387 234.686,210.518 234.818 C 210.650 234.949,211.991 234.436,213.500 233.677 C 216.365 232.234,217.810 231.280,217.536 231.010 C 217.447 230.923,216.886 231.242,216.289 231.720 M208.121 235.316 C 207.370 235.802,208.314 235.802,209.443 235.316 L 210.198 234.992 209.443 234.971 C 209.027 234.960,208.432 235.115,208.121 235.316 M192.257 236.072 C 192.568 236.273,193.588 236.421,194.523 236.400 L 196.223 236.363 194.712 236.050 C 192.515 235.596,191.533 235.604,192.257 236.072 M204.155 236.072 L 202.644 236.342 204.344 236.369 C 205.279 236.384,206.383 236.250,206.799 236.072 C 207.766 235.656,206.475 235.656,204.155 236.072 M198.966 236.717 C 199.436 236.807,200.115 236.804,200.477 236.709 C 200.838 236.614,200.453 236.541,199.622 236.545 C 198.791 236.549,198.496 236.626,198.966 236.717 M95.656 254.075 C 95.125 254.289,94.937 310.859,95.467 310.859 C 95.623 310.859,95.703 298.494,95.645 283.381 C 95.587 268.267,95.632 255.524,95.745 255.061 C 95.944 254.241,96.099 254.218,102.082 254.107 L 108.215 253.993 102.172 253.939 C 98.848 253.909,95.916 253.970,95.656 254.075 M111.237 254.601 C 113.435 255.056,114.791 255.046,114.070 254.580 C 113.758 254.378,112.653 254.231,111.615 254.251 L 109.726 254.289 111.237 254.601 M182.221 254.703 C 182.115 254.978,182.078 256.805,182.138 258.763 L 182.247 262.323 188.548 262.426 C 194.136 262.518,194.871 262.604,195.042 263.182 C 195.188 263.674,195.216 263.649,195.158 263.078 C 195.084 262.361,194.764 262.318,188.745 262.219 L 182.409 262.116 182.517 258.442 L 182.625 254.769 198.678 254.664 C 218.433 254.535,216.486 254.116,216.350 258.462 L 216.242 261.945 210.225 262.050 C 206.572 262.113,204.012 262.317,203.709 262.568 C 203.304 262.905,203.227 267.478,203.301 287.015 L 203.391 311.048 203.584 286.874 L 203.777 262.701 210.198 262.512 L 216.619 262.323 216.731 259.112 C 216.792 257.347,216.746 255.519,216.629 255.052 L 216.416 254.202 199.414 254.202 C 185.648 254.202,182.376 254.297,182.221 254.703 M279.683 254.674 C 279.584 254.934,279.548 267.724,279.603 283.097 L 279.703 311.048 279.795 283.010 L 279.887 254.972 280.894 254.719 C 281.448 254.580,284.635 254.556,287.976 254.665 C 291.545 254.782,293.428 254.737,292.540 254.555 C 289.986 254.032,279.892 254.126,279.683 254.674 M116.840 255.882 C 120.704 257.470,123.135 259.527,124.703 262.537 C 125.138 263.372,125.571 263.979,125.665 263.885 C 127.055 262.495,118.178 254.920,115.214 254.966 C 114.896 254.971,115.628 255.383,116.840 255.882 M295.751 255.307 C 296.062 255.524,296.625 255.704,297.002 255.707 C 299.260 255.726,304.444 259.502,305.744 262.075 C 306.095 262.769,306.467 263.253,306.571 263.149 C 307.378 262.342,302.648 257.564,299.762 256.271 C 297.625 255.313,294.778 254.629,295.751 255.307 M103.947 261.832 C 103.468 262.311,103.265 278.850,103.723 280.045 C 103.974 280.699,108.073 280.849,109.915 280.270 C 110.505 280.085,109.584 279.993,107.460 280.025 L 104.060 280.076 103.959 271.114 L 103.858 262.152 104.715 261.942 C 105.863 261.661,112.320 262.357,113.267 262.864 C 114.193 263.359,114.562 263.379,114.277 262.919 C 113.599 261.822,104.875 260.904,103.947 261.832 M287.988 262.616 C 287.886 262.881,287.849 266.663,287.905 271.020 L 288.008 278.942 291.218 278.907 C 292.984 278.888,294.920 278.671,295.520 278.425 C 297.132 277.763,296.533 277.567,294.792 278.187 C 293.969 278.481,292.148 278.728,290.746 278.737 L 288.196 278.754 288.196 270.586 L 288.196 262.419 291.501 262.587 C 296.535 262.842,298.561 264.166,299.757 267.981 C 300.145 269.219,300.237 269.318,300.258 268.519 C 300.314 266.328,298.233 263.828,295.460 262.757 C 293.469 261.988,288.266 261.890,287.988 262.616 M115.874 264.232 C 119.626 267.248,119.750 274.341,116.100 277.212 C 115.543 277.650,115.175 278.096,115.281 278.202 C 115.698 278.619,118.234 275.495,118.780 273.893 C 120.057 270.147,118.415 264.880,115.588 263.650 C 114.798 263.307,114.847 263.406,115.874 264.232 M306.710 264.095 C 306.721 265.043,307.448 265.824,307.454 264.895 C 307.457 264.440,307.290 263.962,307.082 263.834 C 306.874 263.705,306.707 263.823,306.710 264.095 M125.791 264.778 C 125.791 265.090,125.955 265.600,126.157 265.911 C 126.482 266.415,126.523 266.415,126.523 265.911 C 126.523 265.600,126.358 265.090,126.157 264.778 C 125.831 264.274,125.791 264.274,125.791 264.778 M307.622 269.768 C 307.637 271.994,307.764 273.523,307.905 273.168 C 308.242 272.320,308.216 267.874,307.867 266.667 C 307.717 266.146,307.607 267.538,307.622 269.768 M126.672 270.633 C 126.666 274.544,126.687 274.658,127.026 272.583 C 127.251 271.205,127.253 269.648,127.032 268.428 C 126.715 266.678,126.678 266.905,126.672 270.633 M194.987 288.457 C 194.940 300.546,195.028 310.516,195.184 310.612 C 195.441 310.771,195.437 294.915,195.175 274.410 C 195.119 270.047,195.035 276.369,194.987 288.457 M299.614 273.233 C 299.336 274.284,298.651 275.534,297.991 276.193 C 297.364 276.821,296.917 277.402,296.999 277.483 C 297.671 278.156,300.414 273.609,300.204 272.168 C 300.139 271.722,299.898 272.156,299.614 273.233 M304.533 278.297 C 302.070 280.926,302.047 280.755,305.057 282.206 C 307.491 283.380,309.628 285.131,310.985 287.063 C 311.587 287.921,311.586 287.892,310.970 286.745 C 310.018 284.971,307.874 283.128,305.175 281.766 L 302.867 280.601 304.786 278.712 C 305.841 277.673,306.704 276.663,306.704 276.466 C 306.704 275.970,306.740 275.939,304.533 278.297 M124.828 278.525 C 124.478 279.264,123.487 280.680,122.627 281.672 C 121.768 282.663,121.400 283.220,121.811 282.908 C 123.373 281.724,126.101 277.816,125.668 277.384 C 125.557 277.272,125.179 277.786,124.828 278.525 M112.748 279.165 C 111.534 279.608,111.169 279.860,111.728 279.870 C 112.562 279.886,114.825 278.925,114.825 278.555 C 114.825 278.456,114.783 278.399,114.731 278.426 C 114.679 278.454,113.787 278.787,112.748 279.165 M119.730 284.059 C 119.214 284.456,118.961 284.779,119.169 284.777 C 119.669 284.772,121.049 283.718,120.836 283.505 C 120.744 283.413,120.246 283.662,119.730 284.059 M116.242 285.630 C 114.535 286.365,114.000 287.120,114.825 287.630 C 115.033 287.758,115.203 287.540,115.203 287.145 C 115.203 286.636,115.638 286.297,116.698 285.979 C 117.520 285.733,118.295 285.366,118.420 285.164 C 118.738 284.650,118.304 284.743,116.242 285.630 M287.988 286.033 C 287.887 286.298,287.849 290.250,287.906 294.815 L 288.008 303.116 292.382 303.222 C 294.788 303.280,297.153 303.181,297.638 303.002 C 298.170 302.805,296.472 302.745,293.358 302.851 L 288.196 303.026 288.196 294.441 L 288.196 285.856 293.201 286.033 C 295.954 286.130,298.631 286.314,299.150 286.441 C 299.669 286.568,299.415 286.434,298.584 286.142 C 296.560 285.430,288.252 285.346,287.988 286.033 M300.924 287.305 C 302.656 288.514,303.315 289.269,304.046 290.879 C 304.460 291.793,304.803 292.321,304.808 292.053 C 304.834 290.513,301.663 286.634,300.436 286.705 C 300.248 286.716,300.468 286.986,300.924 287.305 M103.665 287.917 C 103.565 288.179,103.530 293.491,103.588 299.721 L 103.694 311.048 103.783 299.433 L 103.872 287.819 104.764 287.819 C 105.380 287.819,105.983 288.288,106.704 289.330 C 107.673 290.727,108.432 291.452,107.792 290.368 C 106.257 287.769,104.193 286.543,103.665 287.917 M116.389 289.913 C 118.227 292.472,118.985 292.881,117.260 290.383 C 116.440 289.196,115.632 288.219,115.463 288.211 C 115.294 288.203,115.711 288.969,116.389 289.913 M312.414 291.029 C 312.396 291.653,312.546 292.417,312.748 292.729 C 313.210 293.445,313.210 292.285,312.748 290.840 C 312.452 289.915,312.445 289.919,312.414 291.029 M110.008 294.145 C 110.717 295.132,112.049 297.043,112.967 298.392 C 114.597 300.787,116.851 303.514,115.557 301.526 C 112.908 297.455,109.288 292.371,109.033 292.362 C 108.859 292.356,109.298 293.159,110.008 294.145 M120.283 295.202 C 122.899 298.902,125.411 302.172,125.638 302.172 C 125.837 302.172,124.300 299.863,123.878 299.528 C 123.747 299.424,122.664 297.939,121.471 296.228 C 120.278 294.517,119.105 292.995,118.864 292.846 C 118.624 292.698,119.262 293.758,120.283 295.202 M304.814 294.145 C 304.810 296.704,304.066 298.502,302.315 300.189 C 301.398 301.072,300.795 301.794,300.976 301.794 C 301.534 301.794,303.618 299.616,304.275 298.345 C 304.898 297.139,305.513 292.729,305.057 292.729 C 304.924 292.729,304.815 293.366,304.814 294.145 M312.577 298.326 C 312.422 299.223,312.386 300.047,312.497 300.158 C 312.772 300.434,313.245 297.803,313.031 297.187 C 312.937 296.917,312.732 297.429,312.577 298.326 M117.500 304.816 C 119.090 307.082,120.043 308.004,118.770 306.043 C 118.399 305.472,117.742 304.454,117.310 303.782 C 116.878 303.109,116.387 302.557,116.218 302.554 C 116.049 302.552,116.626 303.569,117.500 304.816 M310.759 303.399 C 310.448 303.867,309.454 304.999,308.549 305.915 C 307.645 306.832,307.273 307.384,307.723 307.143 C 308.748 306.595,312.067 302.550,311.492 302.550 C 311.399 302.550,311.070 302.932,310.759 303.399 M126.534 303.976 C 126.534 304.230,126.662 304.438,126.818 304.439 C 126.974 304.439,127.781 305.459,128.612 306.704 C 129.443 307.950,130.265 308.970,130.438 308.970 C 130.612 308.970,130.116 308.078,129.338 306.988 C 127.530 304.457,126.534 303.387,126.534 303.976 M120.491 309.160 C 121.665 310.865,122.572 311.603,121.536 310.009 C 121.233 309.542,120.747 308.777,120.458 308.310 C 120.168 307.842,119.794 307.460,119.627 307.460 C 119.459 307.460,119.848 308.225,120.491 309.160 M303.200 309.060 C 302.000 309.484,301.097 309.910,301.193 310.006 C 301.440 310.253,305.140 308.985,305.400 308.564 C 305.519 308.372,305.563 308.232,305.499 308.252 C 305.435 308.272,304.400 308.635,303.200 309.060 M297.639 310.482 L 296.317 310.760 297.639 310.783 C 298.366 310.796,299.301 310.660,299.717 310.482 L 300.472 310.157 299.717 310.180 C 299.301 310.193,298.366 310.329,297.639 310.482 " stroke="none" fill="#5d1613" fill-rule="evenodd"></path><path id="path4" d="M135.223 54.297 C 135.224 54.452,135.810 54.592,136.526 54.607 C 137.242 54.622,137.741 54.495,137.636 54.324 C 137.395 53.935,135.222 53.911,135.223 54.297 M261.147 54.970 C 260.660 55.713,260.610 56.115,260.923 56.765 C 261.291 57.525,261.330 57.475,261.353 56.211 C 261.407 53.263,263.394 53.939,266.950 58.114 C 268.041 59.395,268.933 60.298,268.933 60.122 C 268.933 59.718,266.932 57.331,265.016 55.449 C 263.287 53.751,262.046 53.598,261.147 54.970 M133.144 56.531 C 132.314 57.460,131.426 58.446,131.172 58.723 C 130.184 59.800,126.534 65.066,126.534 65.414 C 126.534 65.616,127.258 64.706,128.142 63.391 C 129.717 61.049,130.516 60.057,133.483 56.764 C 134.292 55.866,134.887 55.066,134.805 54.987 C 134.723 54.908,133.975 55.602,133.144 56.531 M137.866 56.091 C 137.866 56.654,138.029 56.979,138.244 56.846 C 138.451 56.718,138.621 56.378,138.621 56.091 C 138.621 55.804,138.451 55.464,138.244 55.335 C 138.029 55.202,137.866 55.528,137.866 56.091 M261.575 58.546 C 262.218 60.641,262.837 62.102,262.857 61.568 C 262.884 60.851,261.997 58.277,261.591 57.892 C 261.422 57.732,261.415 58.026,261.575 58.546 M136.544 60.812 C 136.402 61.259,136.371 61.709,136.475 61.813 C 136.579 61.917,136.780 61.637,136.922 61.190 C 137.063 60.743,137.094 60.292,136.991 60.189 C 136.887 60.085,136.686 60.365,136.544 60.812 M269.324 60.644 C 269.339 61.023,271.194 63.414,271.197 63.057 C 271.198 62.942,270.774 62.271,270.255 61.568 C 269.736 60.864,269.317 60.448,269.324 60.644 M135.788 63.834 C 135.643 64.693,135.610 65.481,135.713 65.584 C 135.817 65.688,136.021 65.070,136.166 64.212 C 136.311 63.353,136.345 62.565,136.241 62.461 C 136.137 62.357,135.934 62.975,135.788 63.834 M263.456 70.134 C 263.456 73.420,263.335 76.874,263.186 77.809 L 262.916 79.509 263.433 77.620 C 263.968 75.665,264.160 66.671,263.702 65.035 C 263.567 64.552,263.456 66.847,263.456 70.134 M125.448 67.093 C 124.819 68.474,125.093 68.550,125.863 67.209 C 126.213 66.599,126.365 66.100,126.200 66.100 C 126.035 66.100,125.697 66.547,125.448 67.093 M135.370 71.010 C 135.370 73.815,135.429 74.962,135.502 73.560 C 135.575 72.158,135.575 69.863,135.502 68.461 C 135.429 67.059,135.370 68.206,135.370 71.010 M273.829 68.083 C 274.405 69.174,275.276 71.058,275.765 72.271 C 276.254 73.484,276.713 74.298,276.786 74.080 C 276.950 73.589,273.460 66.100,273.067 66.100 C 272.911 66.100,273.254 66.992,273.829 68.083 M124.061 69.912 C 123.729 70.555,123.550 71.173,123.663 71.287 C 123.777 71.400,124.049 71.020,124.269 70.442 C 124.489 69.864,124.758 69.245,124.868 69.067 C 124.978 68.890,124.978 68.744,124.867 68.744 C 124.756 68.744,124.393 69.270,124.061 69.912 M122.422 73.816 C 121.403 76.540,120.715 79.292,120.985 79.562 C 121.102 79.679,121.316 79.147,121.459 78.380 C 121.603 77.613,122.115 75.858,122.596 74.481 C 123.663 71.429,123.520 70.883,122.422 73.816 M276.877 75.165 C 276.877 75.477,277.041 75.987,277.243 76.298 C 277.568 76.802,277.609 76.802,277.609 76.298 C 277.609 75.987,277.444 75.477,277.243 75.165 C 276.917 74.662,276.877 74.662,276.877 75.165 M135.664 76.865 C 135.670 77.280,135.811 78.045,135.977 78.565 L 136.280 79.509 136.291 78.565 C 136.297 78.045,136.156 77.280,135.977 76.865 L 135.653 76.110 135.664 76.865 M277.632 78.187 C 277.632 78.499,277.797 79.008,277.998 79.320 C 278.324 79.824,278.364 79.824,278.364 79.320 C 278.364 79.008,278.199 78.499,277.998 78.187 C 277.673 77.683,277.632 77.683,277.632 78.187 M136.367 80.076 C 136.367 80.387,136.531 80.897,136.733 81.209 C 137.058 81.712,137.099 81.712,137.099 81.209 C 137.099 80.897,136.934 80.387,136.733 80.076 C 136.407 79.572,136.367 79.572,136.367 80.076 M120.386 80.831 C 120.242 81.350,120.138 82.285,120.156 82.908 C 120.186 83.940,120.221 83.907,120.541 82.541 C 120.940 80.837,120.804 79.331,120.386 80.831 M278.458 81.209 C 278.462 81.936,278.595 83.041,278.754 83.664 C 279.028 84.742,279.042 84.723,279.049 83.286 C 279.053 82.455,278.920 81.350,278.754 80.831 C 278.481 79.979,278.452 80.016,278.458 81.209 M119.874 88.952 C 119.875 91.029,119.938 91.831,120.015 90.733 C 120.091 89.636,120.090 87.936,120.013 86.956 C 119.935 85.976,119.873 86.874,119.874 88.952 M279.263 88.763 C 279.263 90.529,279.328 91.251,279.408 90.368 C 279.487 89.485,279.487 88.041,279.408 87.158 C 279.328 86.275,279.263 86.997,279.263 88.763 M139.399 87.319 C 139.368 87.682,142.050 92.136,142.447 92.381 C 143.009 92.728,142.820 92.305,141.549 90.367 C 140.873 89.337,140.119 88.173,139.871 87.779 C 139.624 87.385,139.411 87.179,139.399 87.319 M258.944 88.217 C 258.588 88.761,258.372 89.282,258.464 89.374 C 258.557 89.466,258.924 89.097,259.280 88.553 C 259.637 88.009,259.853 87.489,259.760 87.396 C 259.668 87.304,259.301 87.674,258.944 88.217 M256.499 92.162 C 255.625 93.409,255.048 94.424,255.217 94.419 C 255.616 94.406,258.636 89.896,258.245 89.896 C 258.159 89.896,257.373 90.916,256.499 92.162 M143.242 93.673 C 143.501 94.089,143.844 94.429,144.003 94.429 C 144.163 94.429,144.081 94.089,143.822 93.673 C 143.562 93.258,143.219 92.918,143.060 92.918 C 142.900 92.918,142.982 93.258,143.242 93.673 M278.582 95.296 C 278.419 96.292,278.379 97.202,278.495 97.318 C 278.788 97.611,279.236 95.035,279.040 94.183 C 278.952 93.799,278.746 94.300,278.582 95.296 M120.196 95.184 C 120.192 95.911,120.325 96.931,120.491 97.450 C 120.914 98.771,120.914 96.658,120.491 94.995 L 120.203 93.862 120.196 95.184 M145.316 96.128 C 146.633 97.822,149.953 101.140,149.953 100.763 C 149.953 100.629,148.645 99.191,147.047 97.568 C 145.449 95.945,144.670 95.297,145.316 96.128 M251.436 98.270 C 250.226 99.520,249.301 100.607,249.380 100.686 C 249.459 100.765,250.613 99.729,251.946 98.384 C 253.279 97.040,254.204 95.953,254.002 95.968 C 253.801 95.984,252.646 97.020,251.436 98.270 M277.893 98.709 C 277.441 99.858,277.548 100.824,278.035 99.988 C 278.250 99.618,278.368 99.023,278.296 98.666 C 278.176 98.073,278.141 98.077,277.893 98.709 M120.901 98.961 C 120.912 99.273,121.068 99.868,121.246 100.283 L 121.571 101.039 121.592 100.283 C 121.603 99.868,121.448 99.273,121.246 98.961 C 120.921 98.458,120.883 98.458,120.901 98.961 M121.855 102.353 C 122.122 103.784,124.466 109.160,124.823 109.160 C 124.944 109.160,124.757 108.607,124.407 107.932 C 124.057 107.257,123.284 105.430,122.690 103.872 C 122.095 102.314,121.720 101.630,121.855 102.353 M277.054 101.983 C 276.912 102.430,276.881 102.880,276.985 102.984 C 277.089 103.088,277.290 102.808,277.432 102.361 C 277.573 101.914,277.604 101.463,277.501 101.360 C 277.397 101.256,277.196 101.536,277.054 101.983 M152.485 102.757 C 153.159 103.622,156.374 105.862,156.374 105.467 C 156.374 105.279,155.992 104.933,155.524 104.697 C 155.057 104.461,154.079 103.796,153.352 103.220 C 152.625 102.643,152.235 102.435,152.485 102.757 M245.323 103.532 C 244.494 104.144,243.504 104.906,243.124 105.224 C 242.745 105.543,242.022 105.991,241.519 106.220 C 241.016 106.449,240.604 106.783,240.604 106.963 C 240.604 107.334,241.769 106.634,244.759 104.465 C 245.902 103.636,246.907 102.908,246.994 102.848 C 247.081 102.788,247.079 102.666,246.991 102.578 C 246.903 102.490,246.153 102.919,245.323 103.532 M274.700 108.033 C 274.055 109.484,273.608 110.670,273.705 110.670 C 273.977 110.670,276.221 105.746,276.035 105.559 C 275.945 105.470,275.344 106.583,274.700 108.033 M157.501 106.498 C 158.018 106.895,158.515 107.144,158.607 107.052 C 158.821 106.839,157.440 105.785,156.941 105.781 C 156.733 105.779,156.985 106.101,157.501 106.498 M160.529 108.195 C 160.529 108.551,168.123 112.185,168.805 112.156 C 169.165 112.140,169.027 111.970,168.461 111.731 C 167.941 111.511,166.077 110.630,164.318 109.773 C 160.362 107.846,160.529 107.916,160.529 108.195 M181.114 108.404 C 180.082 108.848,181.806 108.848,183.192 108.404 C 184.112 108.109,184.108 108.101,183.003 108.091 C 182.380 108.085,181.530 108.226,181.114 108.404 M216.053 108.404 C 217.490 108.864,219.031 108.864,218.319 108.404 C 218.008 108.203,217.158 108.052,216.431 108.070 C 215.219 108.099,215.188 108.127,216.053 108.404 M176.582 109.251 C 172.278 110.726,172.360 110.930,176.771 109.720 C 178.570 109.226,179.483 108.843,178.848 108.850 C 178.225 108.857,177.205 109.037,176.582 109.251 M219.484 108.921 C 219.570 108.997,220.321 109.173,221.152 109.312 C 222.235 109.494,222.502 109.456,222.096 109.179 C 221.587 108.832,219.105 108.586,219.484 108.921 M223.985 110.104 C 225.733 110.777,226.295 110.777,225.118 110.104 C 224.599 109.807,223.834 109.571,223.418 109.579 C 222.924 109.589,223.119 109.771,223.985 110.104 M232.933 110.761 C 231.725 111.378,230.816 111.962,230.911 112.057 C 231.007 112.152,232.249 111.633,233.673 110.902 C 235.096 110.172,236.006 109.589,235.694 109.606 C 235.382 109.624,234.140 110.143,232.933 110.761 M170.778 111.287 C 170.078 111.592,169.586 111.921,169.683 112.018 C 169.780 112.115,170.607 111.855,171.521 111.441 C 172.435 111.026,172.927 110.697,172.616 110.710 C 172.304 110.722,171.477 110.982,170.778 111.287 M227.709 111.434 C 228.614 111.845,229.549 112.169,229.786 112.153 C 230.367 112.116,227.347 110.732,226.629 110.707 C 226.317 110.696,226.803 111.023,227.709 111.434 M272.213 112.728 C 271.685 113.674,271.379 114.448,271.533 114.448 C 271.873 114.448,273.549 111.384,273.329 111.164 C 273.244 111.079,272.742 111.783,272.213 112.728 M126.582 112.783 C 126.855 113.580,130.126 118.201,130.425 118.213 C 130.591 118.219,129.925 117.077,128.943 115.675 C 127.019 112.926,126.349 112.106,126.582 112.783 M269.641 116.698 C 268.289 118.685,261.279 125.771,258.250 128.212 C 256.509 129.614,256.202 130.286,257.153 130.603 C 257.417 130.691,257.515 130.525,257.390 130.200 C 257.256 129.851,257.823 129.111,258.932 128.186 C 263.280 124.559,269.670 117.813,270.783 115.675 C 271.533 114.235,270.979 114.731,269.641 116.698 M131.100 119.263 C 132.151 120.643,139.088 127.327,139.275 127.140 C 139.382 127.033,138.566 126.130,137.460 125.134 C 135.050 122.965,134.739 122.655,132.665 120.375 C 131.095 118.650,130.088 117.935,131.100 119.263 M139.754 127.485 C 139.754 127.612,140.264 128.145,140.888 128.670 C 141.511 129.194,142.021 129.873,142.021 130.179 C 142.021 130.484,142.191 130.629,142.398 130.500 C 143.041 130.103,142.830 129.726,141.265 128.468 C 140.434 127.801,139.754 127.358,139.754 127.485 M135.505 133.197 C 133.687 134.146,132.200 135.096,132.200 135.308 C 132.200 135.525,132.455 135.480,132.786 135.206 C 133.108 134.939,134.765 133.988,136.468 133.093 C 138.172 132.199,139.396 131.467,139.188 131.468 C 138.980 131.469,137.323 132.247,135.505 133.197 M263.050 133.248 C 265.368 134.475,267.404 135.961,269.566 138.001 C 271.295 139.634,272.710 140.855,272.710 140.715 C 272.710 140.458,270.025 137.783,267.868 135.892 C 266.671 134.843,260.655 131.438,260.026 131.454 C 259.835 131.458,261.196 132.266,263.050 133.248 M128.008 138.926 C 125.671 141.495,124.942 142.443,125.147 142.648 C 125.245 142.746,125.805 142.177,126.391 141.385 C 126.977 140.592,128.024 139.373,128.718 138.676 C 129.412 137.978,129.910 137.338,129.825 137.253 C 129.740 137.168,128.922 137.921,128.008 138.926 M273.175 142.021 C 273.435 142.436,273.778 142.776,273.937 142.776 C 274.097 142.776,274.015 142.436,273.756 142.021 C 273.496 141.605,273.153 141.265,272.994 141.265 C 272.834 141.265,272.916 141.605,273.175 142.021 M124.281 143.885 C 124.066 144.286,123.915 145.434,123.946 146.434 L 124.002 148.253 124.233 146.176 C 124.361 145.033,124.601 143.886,124.767 143.626 C 124.932 143.366,124.979 143.154,124.870 143.154 C 124.762 143.154,124.497 143.483,124.281 143.885 M275.072 146.364 C 275.076 147.195,275.153 147.491,275.244 147.021 C 275.334 146.551,275.330 145.871,275.236 145.510 C 275.141 145.149,275.067 145.534,275.072 146.364 M274.284 148.701 C 273.673 149.843,273.733 150.117,274.440 149.410 C 274.768 149.082,274.967 148.602,274.881 148.345 C 274.785 148.057,274.556 148.193,274.284 148.701 M125.732 150.406 C 127.056 151.909,134.836 153.921,136.798 153.267 C 137.052 153.183,135.638 152.915,133.658 152.671 C 129.539 152.165,127.161 151.425,125.790 150.223 L 124.835 149.386 125.732 150.406 M272.125 151.057 C 271.652 151.515,267.467 152.581,265.857 152.653 C 264.648 152.707,264.639 152.717,265.674 152.872 C 267.071 153.080,271.791 151.928,272.363 151.238 C 272.854 150.646,272.682 150.516,272.125 151.057 M156.119 153.447 C 156.505 153.729,156.913 154.830,157.136 156.185 C 157.340 157.432,157.677 158.961,157.885 159.585 C 158.259 160.705,158.261 160.703,158.051 159.396 C 157.012 152.924,157.028 152.975,156.091 152.975 C 155.536 152.975,155.538 153.022,156.119 153.447 M262.606 153.235 C 262.970 153.330,263.565 153.330,263.928 153.235 C 264.292 153.140,263.994 153.062,263.267 153.062 C 262.540 153.062,262.243 153.140,262.606 153.235 M142.304 153.634 C 144.641 153.700,148.466 153.700,150.803 153.634 C 153.140 153.568,151.228 153.514,146.553 153.514 C 141.879 153.514,139.967 153.568,142.304 153.634 M248.442 153.634 C 250.779 153.700,254.603 153.700,256.941 153.634 C 259.278 153.568,257.365 153.514,252.691 153.514 C 248.017 153.514,246.105 153.568,248.442 153.634 M241.559 156.280 C 241.134 159.752,239.762 165.002,238.129 169.405 C 237.945 169.903,237.976 170.032,238.221 169.783 C 239.463 168.523,242.958 154.108,242.022 154.108 C 241.913 154.108,241.705 155.085,241.559 156.280 M158.295 161.851 C 158.283 162.266,158.439 162.861,158.640 163.173 C 159.125 163.924,159.125 162.980,158.640 161.851 L 158.316 161.095 158.295 161.851 M168.493 162.417 C 168.504 163.144,168.669 164.079,168.859 164.495 C 169.154 165.143,169.198 165.090,169.170 164.117 C 169.151 163.494,169.154 162.827,169.176 162.635 C 169.198 162.443,171.161 164.308,173.538 166.780 C 175.916 169.251,177.938 171.193,178.033 171.095 C 178.128 170.996,176.015 168.706,173.338 166.006 C 168.482 161.106,168.472 161.098,168.493 162.417 M224.934 166.940 C 221.820 170.062,219.438 172.616,219.640 172.616 C 219.842 172.616,222.162 170.406,224.797 167.705 C 229.815 162.561,230.403 162.135,230.142 163.834 C 230.006 164.722,230.044 164.775,230.406 164.203 C 230.640 163.835,230.777 163.024,230.713 162.400 C 230.599 161.302,230.408 161.453,224.934 166.940 M159.050 164.495 C 159.039 164.910,159.194 165.505,159.396 165.817 C 159.881 166.568,159.881 165.624,159.396 164.495 L 159.071 163.739 159.050 164.495 M169.445 166.761 C 169.698 168.559,170.179 169.154,172.323 170.329 C 174.195 171.354,173.858 170.902,171.671 169.455 C 170.547 168.711,170.042 168.045,169.696 166.853 L 169.231 165.250 169.445 166.761 M229.495 166.244 C 229.389 166.736,229.251 167.478,229.188 167.892 C 229.117 168.365,228.199 169.140,226.729 169.970 C 225.438 170.698,224.378 171.417,224.373 171.567 C 224.361 171.877,228.001 169.809,228.952 168.965 C 229.295 168.660,229.689 167.810,229.826 167.076 C 230.105 165.592,229.800 164.828,229.495 166.244 M159.785 166.950 C 159.785 167.262,159.950 167.771,160.151 168.083 C 160.477 168.587,160.517 168.587,160.517 168.083 C 160.517 167.771,160.352 167.262,160.151 166.950 C 159.826 166.446,159.785 166.446,159.785 166.950 M161.300 171.388 C 161.321 171.767,162.759 174.381,162.779 174.078 C 162.805 173.687,161.666 171.105,161.468 171.105 C 161.367 171.105,161.291 171.232,161.300 171.388 M175.467 172.193 C 176.295 172.960,182.952 176.758,183.140 176.570 C 183.253 176.458,182.338 175.394,181.107 174.207 C 179.876 173.020,179.331 172.568,179.897 173.203 C 180.463 173.838,180.925 174.478,180.925 174.627 C 180.925 174.942,178.174 173.596,176.712 172.566 C 175.695 171.850,174.811 171.584,175.467 172.193 M222.679 172.355 C 222.272 172.602,221.723 173.001,221.460 173.241 C 221.196 173.482,220.466 173.905,219.838 174.183 C 219.211 174.461,218.697 174.817,218.697 174.974 C 218.697 175.131,218.416 175.260,218.072 175.260 C 217.513 175.260,217.522 175.169,218.150 174.410 C 218.537 173.942,218.190 174.192,217.378 174.964 C 216.566 175.736,215.998 176.464,216.116 176.581 C 216.318 176.784,223.985 172.333,223.985 172.012 C 223.985 171.747,223.443 171.889,222.679 172.355 M162.813 174.551 C 162.777 175.024,164.375 178.339,164.552 178.161 C 164.653 178.060,164.307 177.154,163.783 176.146 C 163.259 175.139,162.822 174.421,162.813 174.551 M233.848 179.334 C 232.956 181.144,232.406 182.452,232.625 182.241 C 233.123 181.763,235.776 176.349,235.600 176.173 C 235.529 176.102,234.741 177.524,233.848 179.334 M231.337 184.042 L 230.738 185.269 231.508 184.325 C 232.249 183.416,232.491 182.814,232.115 182.814 C 232.017 182.814,231.667 183.366,231.337 184.042 M167.916 184.986 C 169.950 189.605,170.480 194.952,169.439 200.378 C 169.320 201.001,169.472 200.661,169.778 199.622 C 170.517 197.116,170.507 191.430,169.759 188.832 C 169.098 186.531,168.156 184.325,167.836 184.325 C 167.720 184.325,167.756 184.622,167.916 184.986 M229.462 188.480 C 229.318 189.133,229.280 189.746,229.376 189.842 C 229.472 189.938,229.660 189.474,229.792 188.810 C 230.107 187.236,229.802 186.931,229.462 188.480 M228.776 192.262 C 228.519 194.431,229.024 199.544,229.634 200.944 C 230.031 201.858,230.038 201.851,229.837 200.755 C 229.230 197.438,228.961 194.114,229.157 192.351 C 229.278 191.261,229.292 190.368,229.189 190.368 C 229.085 190.368,228.899 191.221,228.776 192.262 M167.569 205.775 C 167.229 206.988,166.970 208.395,166.994 208.901 C 167.030 209.665,167.066 209.692,167.207 209.065 C 167.300 208.650,167.623 207.307,167.925 206.082 C 168.643 203.167,168.367 202.930,167.569 205.775 M231.721 211.782 C 231.718 214.650,231.825 216.487,231.960 215.864 C 232.280 214.386,232.289 208.558,231.974 207.438 C 231.839 206.959,231.725 208.914,231.721 211.782 M167.014 214.731 C 167.008 215.354,167.149 216.204,167.328 216.619 C 167.771 217.652,167.771 215.928,167.328 214.542 C 167.033 213.621,167.025 213.626,167.014 214.731 M229.877 220.753 C 229.501 221.452,228.616 222.635,227.911 223.383 C 226.308 225.082,226.224 225.644,227.796 224.150 C 228.996 223.009,230.998 219.919,230.719 219.639 C 230.632 219.553,230.254 220.054,229.877 220.753 M169.172 221.246 C 169.946 222.756,170.826 223.825,172.049 224.741 C 172.465 225.052,172.177 224.595,171.409 223.724 C 170.642 222.854,169.745 221.621,169.417 220.986 C 169.088 220.350,168.735 219.830,168.632 219.830 C 168.530 219.830,168.772 220.467,169.172 221.246 M173.644 225.901 C 174.106 226.382,174.578 226.681,174.694 226.565 C 174.811 226.449,174.433 226.055,173.855 225.690 L 172.805 225.027 173.644 225.901 M176.204 227.209 C 176.827 227.494,177.592 227.723,177.904 227.716 C 178.215 227.710,177.875 227.475,177.148 227.195 C 175.424 226.531,174.745 226.541,176.204 227.209 M179.463 229.931 C 179.748 230.294,180.364 230.902,180.833 231.282 C 181.302 231.663,181.927 232.217,182.222 232.512 C 182.518 232.808,182.892 233.050,183.053 233.050 C 183.215 233.050,182.427 232.200,181.303 231.161 C 179.190 229.209,178.565 228.791,179.463 229.931 M218.319 230.728 C 217.363 231.890,213.716 234.146,211.716 234.811 C 210.674 235.157,210.030 235.511,210.286 235.597 C 211.072 235.860,216.190 233.179,217.965 231.575 C 218.887 230.741,219.471 230.055,219.263 230.049 C 219.056 230.043,218.631 230.349,218.319 230.728 M183.569 233.236 C 183.569 233.492,186.637 235.018,186.808 234.847 C 186.887 234.768,186.191 234.334,185.261 233.882 C 184.331 233.430,183.569 233.139,183.569 233.236 M189.991 236.072 C 190.302 236.273,190.897 236.438,191.313 236.438 C 191.938 236.438,191.971 236.375,191.501 236.072 C 191.190 235.870,190.595 235.706,190.179 235.706 C 189.554 235.706,189.521 235.769,189.991 236.072 M207.743 236.072 C 207.240 236.397,207.240 236.438,207.743 236.438 C 208.055 236.438,208.565 236.273,208.876 236.072 C 209.380 235.746,209.380 235.706,208.876 235.706 C 208.565 235.706,208.055 235.870,207.743 236.072 M194.015 236.922 C 194.232 237.272,203.911 237.249,204.802 236.895 C 205.158 236.754,202.837 236.638,199.644 236.638 C 196.452 236.638,193.919 236.766,194.015 236.922 M94.658 254.044 C 94.184 255.278,94.402 310.681,94.882 311.161 C 95.180 311.460,96.771 311.615,99.528 311.615 C 105.102 311.615,104.626 312.757,104.634 299.358 L 104.641 288.008 105.995 289.518 C 106.739 290.349,107.174 290.689,106.962 290.274 C 104.549 285.540,104.073 287.033,103.975 299.641 C 103.928 305.707,103.885 310.803,103.880 310.966 C 103.876 311.128,101.874 311.213,99.433 311.155 L 94.995 311.048 94.995 282.548 L 94.995 254.047 95.940 253.785 L 96.884 253.522 95.886 253.484 C 95.297 253.462,94.793 253.692,94.658 254.044 M102.738 253.659 C 104.029 253.942,112.516 254.030,112.084 253.756 C 111.826 253.592,109.490 253.475,106.893 253.496 C 104.297 253.517,102.427 253.590,102.738 253.659 M114.825 254.580 C 115.137 254.781,115.647 254.946,115.958 254.946 C 116.462 254.946,116.462 254.905,115.958 254.580 C 115.647 254.378,115.137 254.214,114.825 254.214 C 114.322 254.214,114.322 254.254,114.825 254.580 M216.853 258.263 C 216.813 262.028,216.733 262.515,216.147 262.542 C 215.660 262.564,215.627 262.627,216.020 262.782 C 217.006 263.172,217.566 261.739,217.519 258.946 C 217.440 254.201,216.902 253.649,216.853 258.263 M294.995 254.580 C 296.451 255.046,297.228 255.046,296.506 254.580 C 296.195 254.378,295.515 254.228,294.995 254.246 L 294.051 254.277 294.995 254.580 M118.602 255.880 C 120.775 257.015,123.609 259.511,124.665 261.221 C 125.117 261.953,125.577 262.462,125.686 262.353 C 126.593 261.446,119.032 254.869,117.205 254.975 C 117.039 254.985,117.668 255.392,118.602 255.880 M298.976 255.640 C 302.290 257.029,305.145 259.483,306.502 262.108 C 306.852 262.784,307.223 263.253,307.326 263.149 C 308.524 261.951,300.447 254.857,298.017 254.973 C 297.705 254.988,298.137 255.288,298.976 255.640 M104.081 262.784 C 103.705 263.762,103.908 278.464,104.307 279.226 C 104.684 279.945,108.199 280.100,110.482 279.499 C 111.126 279.329,110.108 279.290,108.121 279.409 L 104.627 279.617 104.627 271.008 L 104.627 262.398 108.310 262.597 C 110.335 262.706,111.483 262.667,110.859 262.510 C 108.492 261.912,104.351 262.079,104.081 262.784 M112.559 263.250 C 112.871 263.461,113.381 263.639,113.692 263.645 C 114.411 263.660,116.444 265.447,117.061 266.605 C 117.319 267.090,117.620 267.397,117.730 267.287 C 118.413 266.605,115.040 263.553,113.126 263.122 C 112.299 262.936,112.146 262.970,112.559 263.250 M194.523 287.176 L 194.712 311.426 199.024 311.533 C 201.395 311.592,203.469 311.507,203.633 311.344 C 203.796 311.181,201.941 311.048,199.510 311.048 L 195.090 311.048 194.992 287.268 C 194.939 274.189,194.769 263.362,194.615 263.208 C 194.460 263.053,194.419 273.839,194.523 287.176 M288.448 263.141 C 288.032 263.557,288.152 277.926,288.574 278.187 C 288.821 278.340,288.952 275.736,288.952 270.655 C 288.952 266.384,288.895 262.890,288.826 262.890 C 288.757 262.890,288.587 263.003,288.448 263.141 M293.673 263.302 C 296.417 263.912,297.946 265.088,299.025 267.414 C 299.268 267.938,299.480 268.143,299.497 267.869 C 299.629 265.740,295.709 262.797,292.918 262.930 C 292.502 262.949,292.842 263.117,293.673 263.302 M307.471 264.400 C 307.471 264.712,307.636 265.222,307.838 265.534 C 308.163 266.037,308.204 266.037,308.204 265.534 C 308.204 265.222,308.039 264.712,307.838 264.400 C 307.512 263.897,307.471 263.897,307.471 264.400 M126.561 265.039 C 126.646 266.020,127.237 266.851,127.263 266.028 C 127.278 265.573,127.120 265.095,126.912 264.967 C 126.704 264.839,126.546 264.871,126.561 265.039 M308.351 269.688 C 308.351 271.662,308.415 272.469,308.493 271.483 C 308.571 270.496,308.571 268.881,308.493 267.894 C 308.415 266.907,308.351 267.715,308.351 269.688 M118.025 270.769 C 118.031 272.419,118.161 273.574,118.313 273.334 C 118.662 272.788,118.640 269.351,118.282 268.445 C 118.135 268.073,118.020 269.118,118.025 270.769 M127.367 270.444 C 127.367 272.405,127.426 272.652,127.659 271.671 C 127.819 270.996,127.819 269.891,127.659 269.216 C 127.426 268.236,127.367 268.483,127.367 270.444 M299.623 270.255 C 299.627 271.086,299.705 271.381,299.795 270.912 C 299.885 270.442,299.882 269.762,299.787 269.401 C 299.693 269.040,299.619 269.424,299.623 270.255 M299.194 272.585 C 299.170 272.827,299.040 273.337,298.906 273.718 C 298.716 274.255,298.766 274.313,299.130 273.978 C 299.388 273.740,299.517 273.230,299.418 272.845 C 299.319 272.459,299.218 272.342,299.194 272.585 M116.428 275.933 C 115.147 277.330,114.785 278.060,115.787 277.228 C 116.384 276.733,117.998 274.599,117.776 274.599 C 117.708 274.599,117.102 275.199,116.428 275.933 M126.452 276.290 C 126.107 277.325,125.890 278.235,125.969 278.314 C 126.222 278.567,127.320 275.599,127.197 274.994 C 127.131 274.673,126.796 275.256,126.452 276.290 M297.715 275.619 C 296.594 276.877,296.864 277.148,298.017 275.921 C 298.503 275.403,298.828 274.906,298.738 274.816 C 298.648 274.726,298.188 275.087,297.715 275.619 M304.907 278.896 C 303.450 280.357,303.212 281.020,304.146 281.020 C 304.331 281.020,304.373 280.843,304.240 280.627 C 304.106 280.411,304.437 279.888,304.975 279.465 C 305.780 278.832,307.009 277.189,306.623 277.263 C 306.564 277.275,305.792 278.010,304.907 278.896 M112.937 278.399 C 112.210 278.782,111.836 279.103,112.106 279.113 C 112.650 279.133,114.825 278.082,114.825 277.800 C 114.825 277.506,114.335 277.662,112.937 278.399 M293.296 277.998 C 292.621 278.288,292.649 278.326,293.557 278.349 C 294.116 278.364,294.678 278.206,294.806 277.998 C 295.085 277.547,294.345 277.547,293.296 277.998 M124.701 279.986 C 124.269 280.686,123.569 281.571,123.147 281.953 C 122.250 282.765,122.095 283.615,122.978 282.882 C 123.818 282.185,125.890 279.116,125.670 278.896 C 125.569 278.796,125.134 279.286,124.701 279.986 M306.327 282.113 C 307.262 282.706,308.089 283.136,308.166 283.068 C 308.441 282.824,307.124 281.775,306.543 281.775 C 306.216 281.775,305.949 281.605,305.949 281.398 C 305.949 281.190,305.652 281.023,305.288 281.027 C 304.894 281.031,305.314 281.470,306.327 282.113 M310.019 284.932 C 310.884 285.941,311.928 287.640,312.339 288.709 C 312.750 289.777,313.093 290.312,313.102 289.896 C 313.125 288.827,311.165 285.573,309.690 284.230 C 308.675 283.306,308.736 283.435,310.019 284.932 M118.791 285.235 C 117.753 285.815,117.105 286.294,117.353 286.299 C 117.713 286.306,120.117 285.092,120.837 284.540 C 121.610 283.947,120.296 284.394,118.791 285.235 M115.584 286.676 C 115.135 286.959,115.116 287.127,115.489 287.501 C 115.863 287.874,115.958 287.845,115.958 287.359 C 115.958 287.023,116.171 286.663,116.431 286.558 C 116.690 286.453,116.733 286.357,116.525 286.343 C 116.317 286.330,115.894 286.480,115.584 286.676 M288.480 286.528 C 288.324 286.684,288.196 290.247,288.196 294.445 C 288.196 303.263,288.109 303.039,291.470 302.830 L 293.673 302.692 291.320 302.621 L 288.967 302.550 288.865 294.397 C 288.809 289.913,288.636 286.372,288.480 286.528 M295.404 286.448 C 295.491 286.526,296.412 286.687,297.450 286.807 C 298.724 286.954,299.032 286.921,298.395 286.704 C 297.451 286.383,295.107 286.183,295.404 286.448 M300.472 287.703 C 302.054 288.554,303.128 289.898,303.688 291.731 C 303.951 292.591,304.239 293.091,304.328 292.840 C 304.813 291.475,301.279 287.023,299.755 287.078 C 299.526 287.087,299.849 287.368,300.472 287.703 M117.310 290.179 C 118.089 291.270,119.062 292.502,119.472 292.918 C 119.882 293.333,119.642 292.851,118.938 291.845 C 118.234 290.839,117.403 289.607,117.092 289.107 C 116.780 288.607,116.383 288.197,116.210 288.197 C 116.036 288.197,116.531 289.089,117.310 290.179 M110.549 296.034 C 113.952 300.996,115.795 303.325,114.812 301.424 C 114.546 300.909,114.135 300.294,113.898 300.058 C 113.662 299.821,112.201 297.741,110.653 295.435 C 109.104 293.129,107.704 291.237,107.541 291.230 C 107.379 291.224,108.732 293.385,110.549 296.034 M313.314 295.184 C 313.314 297.326,313.442 298.999,313.598 298.903 C 313.754 298.807,313.881 297.133,313.881 295.184 C 313.881 293.235,313.754 291.562,313.598 291.465 C 313.442 291.369,313.314 293.043,313.314 295.184 M120.394 294.334 C 120.599 294.594,121.809 296.223,123.084 297.955 C 124.359 299.687,125.401 300.951,125.401 300.763 C 125.401 300.575,124.382 299.073,123.137 297.425 C 121.891 295.777,120.872 294.301,120.871 294.145 C 120.870 293.990,120.678 293.862,120.445 293.862 C 120.159 293.862,120.142 294.016,120.394 294.334 M303.752 297.024 C 303.488 297.753,302.765 298.893,302.144 299.557 C 300.873 300.918,300.844 301.440,302.105 300.265 C 303.061 299.374,304.540 296.622,304.357 296.074 C 304.288 295.867,304.016 296.294,303.752 297.024 M299.339 301.416 C 299.211 301.624,299.361 301.794,299.672 301.794 C 299.984 301.794,300.344 301.624,300.472 301.416 C 300.601 301.209,300.451 301.039,300.139 301.039 C 299.827 301.039,299.467 301.209,299.339 301.416 M125.779 301.664 C 125.779 301.879,126.119 302.362,126.534 302.738 C 126.950 303.114,127.290 303.304,127.290 303.159 C 127.290 303.014,126.950 302.531,126.534 302.085 C 126.119 301.639,125.779 301.450,125.779 301.664 M295.373 302.172 L 293.673 302.436 295.562 302.466 C 296.601 302.483,297.790 302.350,298.206 302.172 C 299.159 301.762,298.006 301.762,295.373 302.172 M311.117 303.788 C 310.586 304.695,309.418 306.078,308.522 306.861 C 307.626 307.645,307.239 308.113,307.661 307.903 C 309.207 307.134,312.757 302.810,312.254 302.308 C 312.161 302.214,311.649 302.880,311.117 303.788 M116.208 304.112 C 117.253 305.718,119.035 307.835,118.391 306.704 C 117.611 305.337,115.885 302.926,115.527 302.705 C 115.311 302.572,115.618 303.205,116.208 304.112 M129.078 306.311 C 130.068 307.756,131.020 308.946,131.194 308.955 C 131.368 308.963,130.965 308.248,130.299 307.365 C 129.633 306.483,128.811 305.294,128.472 304.724 C 128.134 304.154,127.726 303.686,127.567 303.685 C 127.408 303.684,128.087 304.865,129.078 306.311 M118.602 307.644 C 118.602 307.746,118.846 308.128,119.143 308.494 C 119.440 308.860,120.135 309.712,120.687 310.387 L 121.691 311.615 127.040 311.532 L 132.389 311.448 127.003 311.332 L 121.616 311.216 120.393 309.345 C 119.330 307.719,118.602 307.029,118.602 307.644 M306.236 308.432 C 306.117 308.551,305.026 309.057,303.812 309.556 C 302.598 310.055,301.860 310.466,302.172 310.469 C 302.832 310.475,306.704 308.726,306.704 308.422 C 306.704 308.154,306.509 308.159,306.236 308.432 M279.380 311.331 C 279.596 311.683,298.339 311.658,299.232 311.305 C 299.589 311.164,295.229 311.048,289.543 311.048 C 283.858 311.048,279.284 311.176,279.380 311.331 " stroke="none" fill="#1f0404" fill-rule="evenodd"></path></g></svg>